<svg width="878" height="660" fill="none" xmlns="http://www.w3.org/2000/svg"><path opacity=".5" fill-rule="evenodd" clip-rule="evenodd" d="M868.075 660H1.269C-9.706 512.198 136.012 419.063 215.18 368.462c10.285-6.573 19.446-12.429 26.995-17.593 33.088-22.637 57.624-72.068 83.719-124.641C373.97 129.372 427.337 21.854 549.226 51.591 656.389 77.802 817.447 189.332 878 356.18v277.116A514.422 514.422 0 01868.075 660z" fill="url(#paint0_linear)"/><path d="M477 465c-125.921 0-228 10.297-228 23s102.079 23 228 23 228-10.297 228-23-102.079-23-228-23z" fill="#F0F0F5"/><path d="M683.38 398.817s-32.348 92.239-35.814 92.239c-3.466 0-72.784 21.907-11.553-5.765 0 0 6.932-100.31 17.33-104.922 10.397-4.611 30.037 18.448 30.037 18.448z" fill="#965450"/><path d="M659.119 465.229c10.513-27.326 24.262-66.412 24.262-66.412s-19.641-23.059-30.038-18.448c-6.701 2.998-12.015 46.12-14.904 76.097 6.932 2.768 13.748 5.765 20.68 8.763z" fill="#76413B"/><path d="M625.962 490.249s-2.657 6.111 22.759-.346l-1.155 3.459s-71.628 16.834-21.604-3.113z" fill="#051F38"/><path d="M663.74 359.731s50.024 84.053 47.829 86.705c-2.195 2.651-29.922 69.755-11.9 5.073 0 0-72.552-69.756-69.433-80.709 3.235-10.838 33.504-11.069 33.504-11.069z" fill="#965450"/><path d="M697.128 462.347s3.004 5.995 14.326-17.641l1.964 3.113c-.116 0-33.157 65.72-16.29 14.528z" fill="#051F38"/><path d="M692.854 409.771c-13.402-23.637-29.114-50.04-29.114-50.04s-30.269.231-33.504 11.069c-2.079 7.033 27.728 38.855 48.87 60.301.115.115 8.318-8.993 13.748-21.33z" fill="#76413B"/><path d="M695.51 233.364s-30.616-34.013-48.523-12.683c-17.907 21.33-45.634 91.662-41.591 120.487 2.427 16.949 18.716 35.051 31.771 47.157l-10.975 61.8s45.056 12.106 42.168 12.106c-1.733 0 44.479-123.945 49.1-163.147 4.622-39.201-21.95-65.72-21.95-65.72z" fill="#63C"/><path opacity=".2" d="M672.059 240.974c8.549-.116 17.907-1.269 26.109-4.612-1.617-1.96-2.657-2.998-2.657-2.998s-30.615-34.013-48.522-12.683c-2.773 3.344-5.777 7.725-8.781 13.029 10.052 5.534 22.76 7.494 33.851 7.264zM626.193 257.461c-12.708 28.94-23.452 64.913-20.795 83.592 2.31 16.833 18.485 34.82 31.539 46.926 4.622-31.361 13.055-74.944 18.139-100.079-12.593-7.148-22.991-17.41-28.883-30.439z" fill="#352C38"/><path d="M607.131 165.337l-18.485 35.743s-32.348-17.871-36.97-17.871c-4.621 0-26.571.576-16.174 5.188 0 0-4.621 2.882.578 4.035 0 0-4.621 4.036 1.155 4.612l13.286-.576s26.572 24.213 39.858 27.671c13.286 3.459 34.659-41.507 34.659-41.507l-17.907-17.295z" fill="#965450"/><path d="M610.135 190.934a754.19 754.19 0 008.896 3.113c3.697-6.456 6.007-11.53 6.007-11.53l-17.907-17.294-10.167 19.6c4.044 2.537 8.55 4.497 13.171 6.111z" fill="#76413B"/><path d="M630.236 148.043s-17.329-2.882-23.684 6.342c-6.354 9.223-9.242 24.212-9.242 24.212l24.839 12.107 8.087-42.661z" fill="#34CB79"/><path opacity=".1" d="M620.648 180.673c-6.354-4.958-13.633-11.184-18.369-18.679-3.466 8.071-5.084 16.488-5.084 16.488l24.839 12.106 1.502-7.84c-.924-.576-1.964-1.268-2.888-2.075z" fill="#161826"/><path d="M508.699 178.943c.693 1.845-.346 3.92-2.195 4.612l-13.632 4.958c-1.849.692-3.928-.346-4.622-2.191l-5.429-15.104c-.694-1.845.346-3.92 2.195-4.612l13.632-4.958c1.849-.691 3.928.346 4.621 2.191l5.43 15.104z" fill="#23173B"/><path d="M519.674 167.644l-42.746 15.335c-7.509 2.651-11.321 10.953-8.664 18.447l13.17 36.55c2.657 7.494 10.975 11.299 18.485 8.647l42.746-15.334c7.509-2.652 11.322-10.954 8.665-18.448l-13.171-36.55c-2.772-7.494-10.975-11.414-18.485-8.647zm27.497 48.541c1.039 2.997-.463 6.341-3.466 7.379l-18.37-50.732c3.004-1.037 6.355.462 7.394 3.459l14.442 39.894z" fill="#322153"/><path d="M505.926 163.608c.578 1.615-.231 3.459-1.848 4.036l-19.409 7.033c-1.618.577-3.466-.23-4.044-1.845l-1.617-4.496c-.578-1.614.231-3.459 1.848-4.036l19.409-7.033c1.618-.576 3.466.231 4.044 1.845l1.617 4.496z" fill="#63C"/><path d="M533.191 185.515s7.279-2.536 8.55-1.038c1.155 1.384-6.123 3.459-5.777 3.575.231.115 7.856-1.614 8.549 0 .694 1.614-8.087 4.496-8.087 4.496s8.318-2.306 8.896-.576c.578 1.729-8.665 4.266-8.665 4.266l-.462-3.805-.577-4.381-2.427-2.537zM543.474 183.555s-5.661-3.805-5.661-5.073c-.116-1.384 15.019 4.958 15.019 4.958l-9.358.115z" fill="#965450"/><path d="M655.075 145.161c-1.155 2.075 4.506-46.235 4.506-46.235l-26.225 17.641s2.31 30.9-.578 31.015c-1.155 0-5.661 1.73-10.629 3.574 1.156 5.765 3.466 7.033 5.43 12.568 14.673-.115 30.616-.461 39.627-13.836-5.199-1.729-10.629-7.61-12.131-4.727z" fill="#76413B"/><path d="M630.236 148.043l-1.155-4.035 28.883-6.342 1.155 6.918s34.659 11.53 39.28 37.472c4.621 25.942 2.311 42.661-2.888 51.308 0 0-40.436 5.765-57.765-2.882-17.33-8.648-35.237-73.215-25.994-78.98 9.242-5.765 18.484-3.459 18.484-3.459z" fill="#34CB79"/><path opacity=".1" d="M668.015 219.874c-13.864-.807-30.847-2.421-42.4-10.953a43.862 43.862 0 01-6.007-5.304c5.199 12.798 11.668 23.636 18.138 26.865 17.33 8.647 57.765 2.882 57.765 2.882 2.311-3.805 4.044-9.224 4.852-16.372-10.397 3.113-21.257 3.574-32.348 2.882z" fill="#161826"/><path d="M666.628 199.927l29.46-2.306s-7.509 51.884-16.174 69.756c-8.664 17.871-48.522 88.203-32.926 49.001 0 0-20.217 30.555-2.888-.576 0 0-19.062 24.789-2.311-1.729 0 0-19.64 22.483 1.156-9.224 0 0-15.597 7.494 1.733-5.189l16.752-43.813 5.198-55.92z" fill="#965450"/><path d="M695.395 201.772c.463-2.652.694-4.266.694-4.266l-29.461 2.306-.231 2.998c9.589 0 19.294-.461 28.998-1.038z" fill="#76413B"/><path d="M635.782 67.91s14.673-8.531 36.161 5.535c14.21 9.34 13.517 39.202-17.214 58.802-36.507 23.291-18.947-64.336-18.947-64.336z" fill="#051F38"/><path d="M656.116 83.822S639.595 71.024 625.5 77.25c-17.791 8.07-15.943 26.864-16.29 42.891-.462 21.33 16.406 25.366 21.489 25.596 7.509.461 38.125-1.383 25.417-61.915z" fill="#965450"/><path d="M657.733 103.769s.693-3.229 6.239-.692c7.047 3.343 3.235 20.177-4.622 19.716-7.971-.346-1.617-19.024-1.617-19.024z" fill="#965450"/><path d="M657.732 103.769s.925 11.529-1.733 11.645c-2.772.115-5.661-20.87 1.964-20.87 7.625.231-.231 9.225-.231 9.225z" fill="#051F38"/><path d="M657.733 103.769s-5.661-25.597-39.28-21.33c0 0 4.852-9.57 15.481-14.067 14.441-6.11 36.045 18.448 30.037 34.705 0 0-2.772.346-6.238.692z" fill="#34CB79"/><path d="M671.943 80.132s-1.849-30.554 5.545-30.554-.578 25.712-.578 25.712 6.124-36.78 23.915-31.246c17.792 5.534-12.939 31.246-12.939 31.246s14.094-12.914 19.062-8.532C711.8 71.024 686.73 79.67 686.73 79.67s19.063-5.534 21.489 3.69c2.426 9.108-36.854 7.84-36.276-3.229zM610.134 97.889s0-.23.231-.692c.231-.461.462-1.038 1.04-1.614.578-.577 1.271-1.268 2.195-1.73.231-.115.462-.23.809-.346.231-.115.578-.23.809-.23.346 0 .577-.115.924-.115h.924c.578 0 1.155.23 1.733.46.578.231 1.04.462 1.502.808.462.346.809.692 1.155 1.038.347.346.578.691.693 1.037.116.116.231.346.231.462.116.115.116.345.231.46.116.347.232.577.232.808.115.46.115.692.115.692s-.231-.116-.693-.231l-.693-.346c-.231-.115-.578-.23-.925-.461-.346-.115-.577-.346-.924-.461l-1.04-.346-1.039-.346c-.347 0-.693-.115-1.04-.115h-1.04c-.346 0-.693.115-1.04.115-.346.115-.693.115-1.039.23-.347.116-.694.116-1.04.231-.693.23-1.271.346-1.618.461-.346.23-.693.23-.693.23z" fill="#051F38"/><path d="M619.03 129.595s18.947.577 20.217.346c1.156-.23-10.628 8.994-20.217-.346z" fill="#fff"/><path d="M620.301 108.496s0 .23-.116.692c-.115.461-.231 1.037-.462 1.844-.115.346-.231.807-.462 1.153-.116.231-.231.462-.347.577-.115.23-.346.461-.462.576-.346.346-.693.807-1.271 1.038-.115.115-.231.115-.462.231l-.346.115c-.231.115-.578.115-.924.115-.578 0-1.271-.115-1.733-.576a3.14 3.14 0 01-1.04-1.384c-.231-.461-.347-.922-.462-1.383-.116-.462-.116-.923-.116-1.269 0-.807 0-1.383.116-1.844.115-.462.231-.692.231-.692s0 1.037.346 2.536c.116.692.347 1.614.809 2.306.231.346.462.692.809.923.346.23.693.346 1.04.346.231 0 .346 0 .577-.116l.347-.115s.115-.115.231-.115c.346-.116.693-.462 1.04-.692.346-.346.577-.692.808-1.038.231-.346.462-.692.578-1.038.347-.691.578-1.268.809-1.614.346-.346.462-.576.462-.576zM639.363 109.995s0 .23-.115.691c-.116.462-.231 1.038-.462 1.845-.116.346-.231.807-.463 1.153-.115.231-.231.461-.346.577-.116.23-.347.461-.462.576-.347.346-.693.807-1.271 1.038-.116.115-.231.115-.462.231l-.347.115c-.231.115-.577.115-.924.115-.578 0-1.271-.115-1.733-.576a3.148 3.148 0 01-1.04-1.384c-.231-.461-.346-.922-.462-1.384-.115-.461-.115-.922-.115-1.268 0-.807 0-1.383.115-1.845.116-.461.231-.691.231-.691s0 1.037.347 2.536c.115.692.346 1.614.809 2.306.231.346.462.692.808.923.347.23.693.345 1.04.345.231 0 .347 0 .578-.115l.346-.115s.116-.115.231-.115c.347-.116.693-.462 1.04-.692.347-.346.578-.692.809-1.038.231-.346.462-.692.577-1.038.347-.691.578-1.268.809-1.614.347-.346.462-.576.462-.576z" fill="#1F2733"/><path d="M660.39 119.565c.346-.462.577-.808.808-1.269.231-.461.347-.922.462-1.383v-.692c0-.115-.115-.231-.115-.231 0-.115-.116-.23-.231-.23l-.231-.231-.231-.231c-.116-.115-.231-.115-.347-.115l-.346-.115-.232-.115v-.231c-.346-1.268-.462-2.421-.577-3.69a4.929 4.929 0 010-1.844c0-.692.115-1.269.346-1.96.116-.346.347-.692.694-.923.346-.23.808-.461 1.155-.346.462 0 .693.116 1.04.231.346.115.693.231.924.461.231.231.578.461.693.692.231.231.347.576.462.807.231.576.347 1.268.231 1.845-.115-.577-.231-1.153-.577-1.73-.116-.23-.347-.461-.578-.692-.231-.23-.462-.345-.693-.461-.231-.115-.462-.23-.809-.23-.231 0-.578-.116-.809-.116-.462 0-.693.346-.808.807-.347 1.038-.231 2.191-.231 3.344.115 1.153.231 2.421.462 3.574l-.231-.345.346.23c.116.115.231.115.347.231l.346.23.347.346c.116.116.231.231.231.461.116.116.116.346.116.462.115.345 0 .576 0 .922-.116.576-.463 1.038-.809 1.499-.347.346-.809.807-1.155 1.038zM622.034 124.407c-.578.115-1.04.115-1.502.115-.462 0-.924-.115-1.271-.23-.462-.116-.809-.346-1.155-.461-.231-.116-.347-.231-.578-.346-.231-.116-.346-.231-.577-.346l-.694-.577.116-.461a909.005 909.005 0 013.466-9.8 337.012 337.012 0 013.697-9.801c-.809 3.344-1.733 6.803-2.542 10.147l-2.773 10.031-.462-1.038c.231 0 .462.115.693.115a.88.88 0 01.578.231c.347.115.809.346 1.155.576.347.231.694.577 1.04.923.231.115.578.461.809.922z" fill="#76413B"/><path d="M628.85 96.505s.116-.346.462-.692c.231-.23.347-.461.693-.807.347-.23.578-.577 1.04-.807.347-.23.809-.577 1.386-.807.463-.23 1.04-.462 1.618-.692.578-.115 1.271-.346 1.964-.346h1.04l1.039.115c.694 0 1.387.346 1.964.462.578.23 1.156.576 1.733.807.578.346 1.04.691 1.387 1.037.462.346.808.807 1.04 1.153.346.346.577.692.808 1.038.231.346.347.692.462.922.231.462.347.807.347.807s-.347-.115-.809-.345c-.231-.116-.577-.231-.924-.462-.347-.23-.693-.346-1.155-.46-.347-.116-.809-.347-1.271-.577-.462-.116-.924-.346-1.386-.462l-1.387-.345c-.462 0-.924-.231-1.502-.231l-.693-.115h-2.195c-.462 0-.924 0-1.386.115-.462 0-.925.115-1.387.115-.808.116-1.617.23-2.079.346-.462.23-.809.23-.809.23z" fill="#051F38"/><path d="M612.907 490.825c0 4.151-3.35 7.61-7.509 7.725-4.159 0-7.625-3.343-7.741-7.494l-.346-24.443c0-4.151 3.35-7.61 7.509-7.725 4.159 0 7.625 3.343 7.74 7.494l.347 24.443zM506.504 492.095c0 4.15-3.35 7.609-7.509 7.725-4.159 0-7.625-3.344-7.741-7.495l-.346-24.443c0-4.151 3.35-7.61 7.509-7.725 4.159 0 7.625 3.344 7.741 7.494l.346 24.444z" fill="#091E1D"/><path d="M604.358 473.415c.115 9.455-7.51 17.18-16.983 17.295l-71.166.807c-9.474.116-17.214-7.494-17.33-16.949l-7.625-161.648c-.115-9.454 7.51-17.179 16.983-17.295l82.604-1.037c9.473-.116 17.214 7.494 17.329 16.948l-3.812 161.879z" fill="#34CB79"/><path opacity=".1" d="M607.708 327.793l.347-16.026c-.116-9.454-7.856-17.064-17.33-16.949l-82.604 1.038c-9.473.115-17.098 7.84-16.982 17.295l.808 16.026 115.761-1.384z" fill="#161826"/><path d="M621.803 307.732c0 2.651-2.08 4.727-4.737 4.842l-134.939 1.614c-2.657 0-4.736-2.075-4.852-4.727l-.231-17.064c0-2.652 2.079-4.727 4.737-4.843l134.938-1.614c2.658 0 4.737 2.076 4.853 4.727l.231 17.065z" fill="#34CB79"/><path d="M550.174 355.119l15.712-9.454-3.812 9.8-11.9-.346z" fill="#fff"/><path d="M544.283 340.246s1.271 0 3.235 2.997c1.964 2.998 6.354 11.069 6.354 11.069l7.971-3.574 1.849-3.113s-3.466-6.918-6.239-7.379h-13.17z" fill="#fff"/><path d="M539.892 342.321s2.426-2.652 4.39-1.268c1.964 1.384 5.43 7.149 5.43 7.149l-5.661 9.915-10.166-5.649 6.007-10.147zM557.338 367.456l.808 18.217-6.816-7.955 6.008-10.262z" fill="#fff"/><path d="M573.281 369.301s-.578 1.153-4.16 1.499c-3.581.346-12.823.346-12.823.346l-.694 8.762 1.849 3.113s7.74.346 9.473-1.96l6.355-11.76z" fill="#fff"/><path d="M573.396 364.458s1.271 3.344-.924 4.497c-2.08 1.038-8.896 1.268-8.896 1.268l-6.123-9.685 9.82-6.341 6.123 10.261zM543.472 367.226l-16.174-8.533 10.398-1.844 5.776 10.377z" fill="#fff"/><path d="M533.885 380.024s-.693-1.038.809-4.266c1.501-3.229 6.123-11.184 6.123-11.184l-7.163-4.958-3.582.115s-4.159 6.572-3.119 9.109l6.932 11.184z" fill="#fff"/><path d="M537.928 382.56s-3.581-.692-3.35-2.998c.116-2.421 3.35-8.301 3.35-8.301l11.438-.346.462 11.645h-11.9z" fill="#fff"/><path d="M302.247 445.167s-2.541 40.701-4.736 41.508c-8.434 2.882-72.091 19.024-11.9-8.071l-1.617-29.632 18.253-3.805z" fill="#051F38"/><path d="M299.59 476.759c1.502-12.337 2.657-31.592 2.657-31.592l-18.253 3.805 1.502 26.404c4.505 1.268 9.704 1.383 14.094 1.383z" fill="#041523"/><path d="M260.079 492.786c-1.848 4.496 31.424-4.036 37.432-6.111.115-.115.346-.346.577-.923-7.509 2.076-30.268 7.264-38.009 7.034z" fill="#fff"/><path d="M341.181 442.977s3.351 40.7 5.661 41.392c8.549 2.767 72.437 17.641 11.669-8.302l1.039-29.631-18.369-3.459z" fill="#051F38"/><path d="M344.532 474.453c-1.733-12.221-3.351-31.476-3.351-31.476l18.369 3.459-.924 26.403c-4.506 1.384-9.704 1.499-14.094 1.614z" fill="#041523"/><path d="M384.389 489.788c1.964 4.496-31.539-3.459-37.547-5.419-.231 0-.346-.346-.577-.923 7.509 2.076 30.384 6.803 38.124 6.342z" fill="#fff"/><path d="M352.387 223.218s16.636 134.092 13.286 242.588c0 0-19.871 5.534-25.07 1.499-4.506-25.712-3.928-75.751-10.629-112.878-6.354-35.05-8.895-63.76-8.895-63.76l-2.08-2.306s-13.633 169.489-16.636 182.403c-17.214 4.035-22.644-.692-22.644-.692s-7.856-212.034-3.004-246.278c6.239-44.735 75.672-.576 75.672-.576z" fill="#34CB79"/><path opacity=".1" d="M355.39 251.004c-1.733-17.295-3.12-27.671-3.12-27.671s-69.317-44.16-75.672.576c-.577 4.151-.924 10.953-1.27 19.601 5.198 2.882 70.126 12.106 80.062 7.494zM319.808 286.978c.808 9.108 4.967 38.51 10.166 67.449 6.701 37.242 6.123 87.166 10.629 112.878 5.199 4.035 25.07-1.499 25.07-1.499 1.964-66.758-3.466-143.201-8.087-192.087-10.975 6.917-24.955 10.261-37.778 13.259z" fill="#161826"/><path d="M325.7 105.959c.115-14.066 1.155-32.63 1.155-32.63l-27.727-7.609s.924 25.135 1.733 40.47c-12.593 4.266-26.919 12.337-26.919 12.337l52.335 13.259 18.601-17.986s-9.358-4.728-19.178-7.841z" fill="#FFB39F"/><path d="M325.7 105.959c.115-14.066 1.155-32.63 1.155-32.63l-27.727-7.609s.924 25.135 1.733 40.47c-12.593 4.266-26.919 12.337-26.919 12.337l52.335 13.259 24.724-21.215s-15.366-5.765-25.301-4.612z" fill="#E09B8D"/><path d="M296.702 39.086s7.278-23.52 26.456-19.831c19.178 3.69 21.951 28.71 24.377 45.543 2.426 16.949-3.004 32.168-18.023 34.013-13.055 1.614-35.814-.923-32.81-59.725z" fill="#FFB39F"/><path d="M297.626 58.802s-1.155-3.113-5.892.346c-6.008 4.381.115 20.523 7.394 18.794 7.278-1.73-1.502-19.14-1.502-19.14z" fill="#FFB39F"/><path d="M290.925 25.596c.462-.115 9.474-.807 3.466-.23 5.545 5.995 4.968 7.494 12.593 8.878 4.043 12.452-3.928 19.946-3.928 19.946l2.195 14.99-5.777.576s.116-10.377-4.274-11.3c-4.39-.922-5.661 4.382-5.661 4.382-9.127-11.53-18.37-34.129 1.386-37.242z" fill="#051F38"/><path d="M343.26 17.18C346.957 8.07 340.719 0 340.719 0c1.039 3.344.577 6.457-.463 8.993-.693-2.536-1.964-5.303-4.274-8.07 0 0 .693 9.223-11.9 8.07-12.593-1.153-34.659.577-35.583 20.062-1.04 19.486 17.792 5.304 17.792 5.304s37.547 10.492 42.977-19.716l-6.008 2.537zM325.469 50.848s-.347 0-.809-.116a38.975 38.975 0 00-2.079-.346c-.463-.115-.809-.115-1.271-.115-.462-.115-.924-.115-1.387-.115h-2.195l-.693.115c-.462 0-.924.115-1.502.23l-1.386.347c-.462.115-.924.346-1.386.46-.463.116-.809.347-1.271.462-.347.115-.809.23-1.04.461a5.62 5.62 0 00-.809.346c-.462.23-.808.346-.808.346s.115-.346.346-.807c.116-.23.231-.577.462-.922.231-.346.462-.692.809-1.038.347-.346.578-.807 1.04-1.153.462-.346.924-.692 1.502-1.038.577-.23 1.155-.576 1.733-.807.693-.23 1.27-.346 1.964-.461l1.039-.116c.347 0 .694 0 1.04.116.347 0 .693.115.924.115.347.115.578.115.925.23.577.231 1.155.347 1.617.692.462.231.924.577 1.386.808.347.23.694.576 1.04.807.231.23.462.576.693.692-.115.46.116.807.116.807zM344.993 50.27s-.231-.115-.693-.23c-.462-.116-1.04-.346-1.618-.577l-1.039-.346c-.347-.115-.694-.23-1.04-.23-.347 0-.693-.116-1.04-.231-.115 0-.347 0-.462-.115h-.462c-.347-.116-.693.115-1.04 0-.347.115-.693.115-1.04.23l-1.039.346c-.347.116-.694.23-.925.346-.346.115-.693.23-.924.346-.231.115-.462.23-.693.23-.462.116-.693.231-.693.231s0-.23.231-.692c.115-.23.115-.46.346-.807.116-.346.347-.576.578-.922.231-.346.462-.692.809-1.038.346-.346.808-.576 1.155-.922.462-.23 1.04-.461 1.502-.692.578-.115 1.155-.23 1.733-.23h.924c.347 0 .578.115.809.23.231 0 .577.115.808.23l.694.346c.924.577 1.617 1.153 2.079 1.845.462.692.693 1.269.924 1.73.116.691.116.922.116.922z" fill="#051F38"/><path d="M330.783 51.538c.693 1.5 1.387 3.114 2.08 4.612.346.807.577 1.5.924 2.306l.924 2.306.924 2.306c.347.807.578 1.5.925 2.306l.462 1.153c.115.346.346.807.462 1.153.347.692.693 1.384 1.04 2.19l.346.923-.693.346c-1.04.461-2.079 1.038-3.235 1.499-1.039.461-2.195.922-3.35 1.268.924-.807 1.848-1.499 2.773-2.19.924-.692 1.964-1.384 2.888-2.076l-.347 1.269c-.462-.692-.924-1.5-1.386-2.191-.462-.692-.809-1.499-1.155-2.306l-.578-1.153-.462-1.153c-.231-.807-.578-1.614-.809-2.421l-.693-2.422c-.231-.807-.347-1.614-.578-2.42-.115-1.846-.346-3.575-.462-5.305zM297.279 74.598a3.603 3.603 0 01-1.27-1.038c-.347-.346-.809-.807-1.04-1.383a2.162 2.162 0 01-.231-.923v-.46c0-.116.115-.347.115-.462.116-.346.347-.576.578-.807l.346-.346.347-.23-.231.345c0-1.268 0-2.536-.116-3.69-.115-1.267-.231-2.536-.693-3.573-.115-.231-.231-.462-.462-.577a.88.88 0 00-.577-.23c-.116 0-.232 0-.347.115-.116 0-.347.115-.462.115-.231.115-.462.23-.693.461-.231.23-.463.346-.578.577-.116.23-.347.461-.462.807a4.773 4.773 0 00-.347 1.845c-.231-.577-.231-1.269-.115-1.96 0-.346.115-.692.346-.923.116-.346.347-.576.578-.807l.347-.346.462-.346c.115-.115.346-.115.462-.23.115-.116.346-.116.577-.23.463-.116.925 0 1.271.345.347.23.578.577.693.922.347.692.463 1.269.694 1.96.115.692.231 1.269.231 1.96a22.305 22.305 0 010 3.92v.231l-.231.116c-.231.115-.462.23-.578.46l-.462.462c-.116.115-.116.23-.116.346 0 .115-.115.23-.115.346v.691c.115.462.346.923.693 1.384.693.461 1.04.807 1.386 1.153z" fill="#DD9078"/><path d="M315.417 61.8s.116.23.232.692c.115.23.115.46.231.692.115.23.231.576.462.922.115.346.462.576.577.922l.462.462c.116.115.232.23.463.345.346.231.693.346 1.039.462.231 0 .347.115.578.115.231 0 .347 0 .578-.115l.577-.231.578-.346c.347-.23.578-.576.809-.922.231-.346.346-.692.577-1.038.116-.346.231-.692.231-1.153 0-.346 0-.692.116-.922v-.807-.692s.115.23.231.692c.116.23.116.46.231.807 0 .346.116.691.116 1.037s0 .807-.116 1.269c-.115.46-.231.922-.462 1.383a3.607 3.607 0 01-1.04 1.269l-.693.46c-.231.116-.578.231-.809.347-.231 0-.577.115-.924.115-.231 0-.578-.115-.809-.115-.577-.116-1.039-.462-1.502-.808-.462-.345-.693-.807-.924-1.152-.231-.462-.462-.808-.577-1.153-.116-.346-.232-.692-.232-1.038v-.807-.692zM336.329 58.341s.115.23.231.692c.115.23.115.461.231.692.115.23.231.576.462.922.115.346.462.577.578.922l.462.462c.115.115.231.23.462.346.346.23.693.345 1.04.46.231 0 .346.116.577.116.231 0 .347 0 .578-.115l.577-.23.578-.347c.347-.23.578-.576.809-.922.231-.346.346-.692.577-1.038.116-.346.232-.692.232-1.153 0-.346 0-.692.115-.922v-.807-.692s.116.23.231.692c.116.23.116.46.231.807 0 .346.116.691.116 1.037s0 .808-.116 1.269c-.115.46-.231.922-.462 1.383a3.607 3.607 0 01-1.04 1.269l-.693.46c-.231.116-.578.231-.809.347-.231 0-.577.115-.924.115-.231 0-.577-.115-.809-.115-.577-.116-1.039-.462-1.501-.807-.463-.346-.694-.807-.925-1.153-.231-.462-.462-.807-.577-1.153-.116-.346-.231-.692-.231-1.038v-.807-.692z" fill="#1F2733"/><path d="M317.237 78.103s-.116 0 0 .116c.115.115.346.23.578.346.462.346 1.27.691 2.195 1.153.924.46 2.079.922 3.234 1.268.578.23 1.271.346 1.849.461.578.115 1.271.23 1.964.346 1.271.115 2.542.23 3.812.115a14.348 14.348 0 003.351-.692c.924-.345 1.733-.576 2.31-.807.578-.23.925-.346.925-.346s-.231.346-.694.692c-.462.461-1.155 1.038-2.079 1.614-.924.577-2.195 1.153-3.582 1.384-1.386.346-2.888.346-4.39.23-.693-.115-1.502-.23-2.195-.46-.693-.231-1.386-.462-1.964-.808a13.176 13.176 0 01-3.119-1.96c-.809-.691-1.502-1.383-1.849-1.96-.231-.23-.346-.461-.346-.692-.116 0-.116.116 0 0z" fill="#DD9078"/><path d="M335.289 105.613s29.576-3.113 33.388 19.486c3.813 22.714 3.466 28.824 3.466 28.824l-28.882-4.266-7.972-44.044z" fill="#63C"/><path d="M360.242 123.83c-1.733-14.413-16.405-17.526-24.954-18.218-3.813 5.304-9.127 9.109-16.405 9.34-8.319.23-15.944-2.652-19.987-8.994-12.939 1.499-25.763 5.189-28.652 13.951-6.123 18.448-.808 119.911-.808 119.911s51.757 8.878 94.272.807c-.115.115-1.155-97.543-3.466-116.797z" fill="#63C"/><path opacity=".2" d="M267.242 169.258c.231 33.437 2.195 70.678 2.195 70.678s51.757 8.878 94.272.807c0 0-.809-74.137-2.542-105.959-31.308 11.645-62.617 23.175-93.925 34.474z" fill="#352C38"/><path d="M299.127 196.007s-1.155-3.343 4.159-5.534c5.315-2.191 60.076-16.488 63.542-16.026 3.465.461 45.865 5.534 46.558 7.84.693 2.306-50.718 18.909-50.718 18.909l-63.541-5.189z" fill="#E1EDFF"/><path d="M365.557 205.577s-59.96-.23-64.581-5.649c-4.621-5.419-4.737-9.34 21.489-4.728 26.225 4.612 41.359 3.92 41.359 3.92s48.061-22.367 49.678-16.948c1.502 5.534 6.585 4.15-47.945 23.405z" fill="#C0D5FF"/><path d="M413.387 182.287c-1.502-5.419-49.678 16.949-49.678 16.949h-.462c1.039 2.075 1.848 4.035 2.772 6.226 54.068-19.14 48.985-17.756 47.368-23.175z" fill="#B1C5E8"/><path d="M297.394 183.67s-1.156-3.343 4.159-5.534c5.314-2.191 60.075-16.488 63.541-16.026 3.466.461 45.865 5.534 46.559 7.84.693 2.306-50.718 18.909-50.718 18.909l-63.541-5.189z" fill="#E1EDFF"/><path d="M363.824 193.356s-59.96-.231-64.581-5.65c-4.621-5.419-4.737-9.339 21.488-4.727 26.226 4.612 41.36 3.92 41.36 3.92s48.06-22.368 49.678-16.949c1.386 5.419 6.585 4.035-47.945 23.406z" fill="#C0D5FF"/><path d="M411.654 170.065c-1.502-5.419-49.678 16.949-49.678 16.949h-.462c1.039 2.076 1.848 4.036 2.772 6.226 53.953-19.255 48.869-17.871 47.368-23.175z" fill="#B1C5E8"/><path d="M297.163 173.639s-1.04-2.882 4.043-4.842c5.084-1.96 58.112-14.528 61.462-14.067 3.351.462 44.364 4.958 45.057 6.918.693 1.96-49.1 16.719-49.1 16.719l-61.462-4.728z" fill="#E1EDFF"/><path d="M361.398 182.172s-57.996-.231-62.501-4.958c-4.506-4.728-4.506-8.187 20.795-4.151 25.301 4.035 39.973 3.459 39.973 3.459s46.559-19.716 48.061-14.874c1.502 4.728 6.469 3.459-46.328 20.524z" fill="#C0D5FF"/><path d="M407.726 161.648c-1.502-4.727-48.061 14.874-48.061 14.874h-.462a78.247 78.247 0 012.657 5.419c52.335-16.834 47.368-15.565 45.866-20.293z" fill="#B1C5E8"/><path d="M298.78 160.15s-.924-2.883 4.275-4.728c5.199-1.729 58.574-12.337 61.924-11.76 3.35.461 44.132 6.572 44.71 8.532.578 1.96-49.678 14.758-49.678 14.758l-61.231-6.802z" fill="#fff"/><path d="M362.669 171.102s-57.996-2.421-62.27-7.264c-4.275-4.958-4.275-8.301 20.91-3.344 25.186 4.958 39.858 4.958 39.858 4.958s47.252-17.871 48.523-13.144c1.386 4.727 6.354 3.69-47.021 18.794z" fill="#C0D5FF"/><path d="M409.69 152.309c-1.271-4.842-48.523 13.144-48.523 13.144h-.462a57.573 57.573 0 012.426 5.535c52.797-14.989 47.83-13.952 46.559-18.679z" fill="#B1C5E8"/><path d="M268.628 162.34l28.536-6.918s6.123 41.508 7.74 43.814c1.618 2.306 49.332 4.612 49.332 4.612l13.863.807s-58.574 24.558-75.441 14.643c-17.098-10.147-24.03-56.958-24.03-56.958z" fill="#FFB39F"/><path d="M271.401 167.298c8.78-2.652 17.329-5.88 26.34-7.84a260.837 260.837 0 00-.577-4.036l-28.536 6.918.924 5.535c.693-.231 1.271-.462 1.849-.577z" fill="#E09B8D"/><path d="M362.785 208.46s21.719-5.765 21.719-10.147c0-4.381-7.856-20.177-2.31.923 0 0-11.553-28.594-2.311 1.383 0 0-9.011-23.29-2.888.577 0 0-9.243-16.142-2.542 1.153l-8.318 3.113-19.987-.231-10.628 10.377 27.265-7.148zM413.618 187.36s-11.553-28.594-2.311 1.384c0 0-9.011-23.291-2.888.576 0 0-9.243-16.142-3.351 1.268l-6.354 2.998c2.311.231 5.315.115 7.741-.692 7.394-1.499 9.473-4.035 9.473-6.341 0-4.381-7.856-20.177-2.31.807z" fill="#FFB39F"/><path d="M443.078 490.825c0 4.151-3.35 7.61-7.509 7.725-4.16 0-7.625-3.343-7.741-7.494l-.347-24.443c0-4.151 3.351-7.61 7.51-7.725 4.159 0 7.625 3.343 7.74 7.494l.347 24.443zM336.675 492.095c0 4.15-3.35 7.609-7.509 7.725-4.159 0-7.625-3.344-7.741-7.495l-.346-24.443c0-4.151 3.35-7.61 7.509-7.725 4.159 0 7.625 3.344 7.741 7.494l.346 24.444z" fill="#091E1D"/><path d="M434.529 473.415c.116 9.455-7.509 17.18-16.983 17.295l-71.166.807c-9.473.116-17.214-7.494-17.329-16.949l-7.625-161.648c-.116-9.454 7.509-17.179 16.982-17.295l82.604-1.037c9.474-.116 17.214 7.494 17.33 16.948l-3.813 161.879z" fill="#322153"/><path d="M437.879 327.793l.347-16.026c-.115-9.454-7.856-17.064-17.329-16.949l-82.604 1.038c-9.474.115-17.099 7.84-16.983 17.295l.809 16.026 115.76-1.384z" fill="#1C0C3B"/><path d="M451.974 307.732c0 2.651-2.079 4.727-4.737 4.842l-134.938 1.614c-2.658 0-4.737-2.075-4.853-4.727l-.231-17.064c0-2.652 2.08-4.727 4.737-4.843l134.939-1.614c2.657 0 4.737 2.076 4.852 4.727l.231 17.065z" fill="#322153"/><path d="M380.346 355.119l15.712-9.454-3.813 9.8-11.899-.346z" fill="#fff"/><path d="M374.454 340.246s1.27 0 3.234 2.997c1.964 2.998 6.355 11.069 6.355 11.069l7.971-3.574 1.849-3.113s-3.466-6.918-6.239-7.379h-13.17z" fill="#fff"/><path d="M370.064 342.321s2.426-2.652 4.39-1.268c1.964 1.384 5.43 7.149 5.43 7.149l-5.661 9.915-10.167-5.649 6.008-10.147zM387.509 367.456l.808 18.217-6.816-7.955 6.008-10.262z" fill="#fff"/><path d="M403.451 369.301s-.577 1.153-4.159 1.499c-3.581.346-12.823.346-12.823.346l-.694 8.762 1.849 3.114s7.74.345 9.473-1.961l6.354-11.76z" fill="#fff"/><path d="M403.567 364.458s1.271 3.344-.924 4.497c-2.08 1.038-8.896 1.268-8.896 1.268l-6.123-9.685 9.82-6.341 6.123 10.261zM373.76 367.226l-16.175-8.532 10.283-1.845 5.892 10.377z" fill="#fff"/><path d="M364.056 380.024s-.693-1.038.809-4.266c1.502-3.229 6.123-11.184 6.123-11.184l-7.163-4.958-3.581.115s-4.159 6.572-3.12 9.109l6.932 11.184z" fill="#fff"/><path d="M368.215 382.56s-3.581-.692-3.35-2.998c.115-2.421 3.35-8.301 3.35-8.301l11.438-.346.462 11.645h-11.9z" fill="#fff"/><defs><linearGradient id="paint0_linear" x1="369.5" y1="153.5" x2="868" y2="652" gradientUnits="userSpaceOnUse"><stop stop-color="#fff"/><stop offset="1" stop-color="#fff" stop-opacity="0"/></linearGradient></defs></svg>