<svg xmlns="http://www.w3.org/2000/svg" width="511" height="544.3333333333335" fill="none" style=""><rect id="backgroundrect" width="100%" height="100%" x="0" y="0" fill="none" stroke="none" class="" style=""/><defs><linearGradient id="paint0_linear" x1="0.42039226719647127" y1="0.17433881406401605" x2="0.9886016067178423" y2="0.9869589546150289"><stop stop-color="#fff"/><stop offset="1" stop-color="#fff" stop-opacity="0"/></linearGradient><radialGradient id="svg_91" spreadMethod="pad" cx="0.296875" cy="0.3671875"><stop stop-color="#fff" offset="0.234375"/><stop offset="1" stop-color="#fff" stop-opacity="0"/></radialGradient><linearGradient id="svg_92" spreadMethod="pad" x1="0.12109375" y1="0.06640625" x2="0.42578125" y2="0.49609375"><stop stop-color="#fff" offset="0"/><stop offset="0.85546875" stop-color="#fff" stop-opacity="0"/></linearGradient><linearGradient id="svg_93" spreadMethod="pad" x1="0.29296875" y1="0.13671875" x2="0.42578125" y2="0.49609375"><stop stop-color="#fff" offset="0"/><stop offset="0.85546875" stop-color="#fff" stop-opacity="0"/></linearGradient><linearGradient id="svg_94" spreadMethod="pad" x1="0.15625" y1="0.16796875" x2="0.42578125" y2="0.49609375"><stop stop-color="#fff" offset="0"/><stop offset="0.85546875" stop-color="#fff" stop-opacity="0"/></linearGradient><linearGradient id="svg_98" spreadMethod="pad" x1="0.125" y1="0" x2="0.5078125" y2="0.66015625"><stop stop-color="#fff" offset="0"/><stop offset="0.85546875" stop-color="#fff" stop-opacity="0"/></linearGradient></defs><g class="currentLayer" style=""><title>Layer 1</title><path fill="url(#svg_98)" fill-opacity="1" stroke="none" stroke-opacity="1" stroke-width="1" stroke-dasharray="none" stroke-linejoin="miter" stroke-linecap="butt" stroke-dashoffset="" fill-rule="evenodd" opacity="0.5" marker-start="" marker-mid="" marker-end="" d="M83.33332824707031,259 C83.33332824707031,170.04972375690608 158.51564527479985,98 251.33332061767578,98 C344.1509959605517,98 419.33331298828125,170.04972375690608 419.33331298828125,259 C419.33331298828125,347.9502762430939 344.1509959605517,420 251.33332061767578,420 C158.51564527479985,420 83.33332824707031,347.9502762430939 83.33332824707031,259 z" id="svg_95" class=""/><path d="M246.3333282470703,491.66666650772095 c-125.921,0 -228,10.297 -228,23 s102.079,23 228,23 s228,-10.297 228,-23 s-102.079,-23 -228,-23 z" fill="#F0F0F5" id="svg_2" class=""/><path d="M452.7133282470703,425.48366650772095 s-32.348,92.239 -35.814,92.239 c-3.466,0 -72.784,21.907 -11.553,-5.7650000000000015 c0,0 6.932,-100.31 17.33,-104.922 c10.397,-4.611 30.037,18.448 30.037,18.448 z" fill="#965450" id="svg_3" class=""/><path d="M428.45232824707034,491.89566650772093 c10.513,-27.326 24.262,-66.412 24.262,-66.412 s-19.641000000000002,-23.059 -30.038,-18.448 c-6.7010000000000005,2.998 -12.015,46.12 -14.904,76.097 c6.932,2.7680000000000002 13.748,5.7650000000000015 20.68,8.763 z" fill="#76413B" id="svg_4" class=""/><path d="M395.2953282470703,516.915666507721 s-2.657,6.111 22.759,-0.3460000000000002 l-1.155,3.459 s-71.628,16.834 -21.604,-3.113 z" fill="#051F38" id="svg_5" class=""/><path d="M433.0733282470703,386.39766650772094 s50.024,84.053 47.829,86.705 c-2.195,2.6510000000000002 -29.922,69.755 -11.9,5.073 c0,0 -72.552,-69.756 -69.433,-80.709 c3.235,-10.838000000000001 33.504,-11.069 33.504,-11.069 z" fill="#965450" id="svg_6" class=""/><path d="M466.46132824707036,489.0136665077209 s3.004,5.995 14.326,-17.641000000000002 l1.964,3.113 c-0.11600000000000003,0 -33.157,65.72 -16.29,14.528 z" fill="#051F38" id="svg_7" class=""/><path d="M462.18732824707035,436.43766650772096 c-13.402,-23.637 -29.114,-50.04 -29.114,-50.04 s-30.269,0.231 -33.504,11.069 c-2.079,7.033 27.728,38.855 48.87,60.301 c0.11500000000000003,0.11500000000000003 8.318,-8.993 13.748,-21.33 z" fill="#76413B" id="svg_8" class=""/><path d="M464.8433282470703,260.030666507721 s-30.616,-34.013 -48.523,-12.683 c-17.907,21.33 -45.634,91.662 -41.591,120.487 c2.427,16.949 18.716,35.051 31.771,47.157 l-10.975,61.8 s45.056,12.106 42.168,12.106 c-1.733,0 44.479,-123.945 49.1,-163.147 c4.622,-39.201 -21.95,-65.72 -21.95,-65.72 z" fill="#63C" id="svg_9" class=""/><path opacity=".2" d="M441.3923282470703,267.64066650772094 c8.549,-0.11600000000000003 17.907,-1.2690000000000001 26.109,-4.612 c-1.617,-1.96 -2.657,-2.998 -2.657,-2.998 s-30.615,-34.013 -48.522,-12.683 c-2.773,3.3440000000000003 -5.777,7.725 -8.781,13.029 c10.052,5.534 22.76,7.494 33.851,7.264 zM395.5263282470703,284.12766650772096 c-12.708,28.94 -23.452,64.913 -20.795,83.592 c2.31,16.833 18.485,34.82 31.539,46.926 c4.622,-31.361 13.055,-74.944 18.139,-100.079 c-12.593,-7.148 -22.991,-17.41 -28.883,-30.439 z" fill="#352C38" id="svg_10" class=""/><path d="M376.4643282470703,192.00366650772094 l-18.485,35.743 s-32.348,-17.871 -36.97,-17.871 c-4.621,0 -26.571,0.5760000000000002 -16.174,5.188 c0,0 -4.621,2.882 0.5780000000000002,4.035 c0,0 -4.621,4.036 1.155,4.612 l13.286,-0.5760000000000002 s26.572,24.213 39.858,27.671 c13.286,3.459 34.659,-41.507 34.659,-41.507 l-17.907,-17.295 z" fill="#965450" id="svg_11" class=""/><path d="M379.4683282470703,217.60066650772094 a754.19,754.19 0 0 0 8.896,3.113 c3.697,-6.456 6.007,-11.53 6.007,-11.53 l-17.907,-17.294 l-10.167,19.6 c4.044,2.537 8.55,4.497 13.171,6.111 z" fill="#76413B" id="svg_12" class=""/><path d="M399.5693282470703,174.70966650772095 s-17.329,-2.882 -23.684,6.3420000000000005 c-6.354,9.223 -9.242,24.212 -9.242,24.212 l24.839,12.107 l8.087,-42.661 z" fill="#34CB79" id="svg_13" class=""/><path opacity=".1" d="M389.98132824707034,207.33966650772095 c-6.354,-4.958 -13.633000000000001,-11.184 -18.369,-18.679 c-3.466,8.071 -5.084,16.488 -5.084,16.488 l24.839,12.106 l1.502,-7.84 c-0.924,-0.5760000000000002 -1.964,-1.268 -2.888,-2.075 z" fill="#161826" id="svg_14" class=""/><path d="M278.0323282470703,205.60966650772096 c0.6930000000000004,1.8450000000000002 -0.3460000000000002,3.92 -2.195,4.612 l-13.632,4.958 c-1.8490000000000002,0.6920000000000004 -3.928,-0.3460000000000002 -4.622,-2.191 l-5.429,-15.104 c-0.6940000000000004,-1.8450000000000002 0.3460000000000002,-3.92 2.195,-4.612 l13.632,-4.958 c1.8490000000000002,-0.6910000000000004 3.928,0.3460000000000002 4.621,2.191 l5.43,15.104 z" fill="#23173B" id="svg_15" class=""/><path d="M289.0073282470703,194.31066650772095 l-42.746,15.335 c-7.509,2.6510000000000002 -11.321,10.953 -8.664,18.447 l13.17,36.55 c2.657,7.494 10.975,11.299 18.485,8.647 l42.746,-15.334 c7.509,-2.652 11.322,-10.954 8.665000000000001,-18.448 l-13.171,-36.55 c-2.7720000000000002,-7.494 -10.975,-11.414 -18.485,-8.647 zm27.497,48.541 c1.039,2.997 -0.463,6.341 -3.466,7.3790000000000004 l-18.37,-50.732 c3.004,-1.037 6.355,0.462 7.394,3.459 l14.442,39.894 z" fill="#322153" id="svg_16" class=""/><path d="M275.2593282470703,190.27466650772095 c0.5780000000000002,1.6150000000000002 -0.231,3.459 -1.848,4.036 l-19.409,7.033 c-1.618,0.5770000000000002 -3.466,-0.23 -4.044,-1.8450000000000002 l-1.617,-4.496 c-0.5780000000000002,-1.614 0.231,-3.459 1.848,-4.036 l19.409,-7.033 c1.618,-0.5760000000000002 3.466,0.231 4.044,1.8450000000000002 l1.617,4.496 z" fill="#63C" id="svg_17" class=""/><path d="M302.52432824707034,212.18166650772093 s7.279,-2.536 8.55,-1.038 c1.155,1.3840000000000001 -6.123,3.459 -5.777,3.575 c0.231,0.11500000000000003 7.856,-1.614 8.549,0 c0.6940000000000004,1.614 -8.087,4.496 -8.087,4.496 s8.318,-2.306 8.896,-0.5760000000000002 c0.5780000000000002,1.729 -8.665000000000001,4.266 -8.665000000000001,4.266 l-0.462,-3.805 l-0.5770000000000002,-4.381 l-2.427,-2.537 zM312.80732824707036,210.22166650772095 s-5.6610000000000005,-3.805 -5.6610000000000005,-5.073 c-0.11600000000000003,-1.3840000000000001 15.019,4.958 15.019,4.958 l-9.358,0.11500000000000003 z" fill="#965450" id="svg_18" class=""/><path d="M424.40832824707036,171.82766650772095 c-1.155,2.075 4.506,-46.235 4.506,-46.235 l-26.225,17.641000000000002 s2.31,30.9 -0.5780000000000002,31.015 c-1.155,0 -5.6610000000000005,1.73 -10.629,3.574 c1.1560000000000001,5.7650000000000015 3.466,7.033 5.43,12.568 c14.673,-0.11500000000000003 30.616,-0.461 39.627,-13.836 c-5.199,-1.729 -10.629,-7.61 -12.131,-4.727 z" fill="#76413B" id="svg_19" class=""/><path d="M399.5693282470703,174.70966650772095 l-1.155,-4.035 l28.883,-6.3420000000000005 l1.155,6.918 s34.659,11.53 39.28,37.472 c4.621,25.942 2.311,42.661 -2.888,51.308 c0,0 -40.436,5.7650000000000015 -57.765,-2.882 c-17.33,-8.648 -35.237,-73.215 -25.994,-78.98 c9.242,-5.7650000000000015 18.484,-3.459 18.484,-3.459 z" fill="#34CB79" id="svg_20" class=""/><path opacity=".1" d="M437.3483282470703,246.54066650772094 c-13.864,-0.807 -30.847,-2.4210000000000003 -42.4,-10.953 a43.862,43.862 0 0 1 -6.007,-5.304 c5.199,12.798 11.668,23.636 18.138,26.865 c17.33,8.647 57.765,2.882 57.765,2.882 c2.311,-3.805 4.044,-9.224 4.852,-16.372 c-10.397,3.113 -21.257,3.574 -32.348,2.882 z" fill="#161826" id="svg_21" class=""/><path d="M435.96132824707036,226.59366650772094 l29.46,-2.306 s-7.509,51.884 -16.174,69.756 c-8.664,17.871 -48.522,88.203 -32.926,49.001 c0,0 -20.217,30.555 -2.888,-0.5760000000000002 c0,0 -19.062,24.789 -2.311,-1.729 c0,0 -19.64,22.483 1.1560000000000001,-9.224 c0,0 -15.597,7.494 1.733,-5.189 l16.752,-43.813 l5.198,-55.92 z" fill="#965450" id="svg_22" class=""/><path d="M464.7283282470703,228.43866650772094 c0.463,-2.652 0.6940000000000004,-4.266 0.6940000000000004,-4.266 l-29.461,2.306 l-0.231,2.998 c9.589,0 19.294,-0.461 28.998,-1.038 z" fill="#76413B" id="svg_23" class=""/><path d="M405.11532824707035,94.57666650772094 s14.673,-8.531 36.161,5.535 c14.21,9.34 13.517,39.202 -17.214,58.802 c-36.507,23.291 -18.947,-64.336 -18.947,-64.336 z" fill="#051F38" id="svg_24" class=""/><path d="M425.4493282470703,110.48866650772095 S408.92832824707034,97.69066650772095 394.8333282470703,103.91666650772095 c-17.791,8.07 -15.943,26.864 -16.29,42.891 c-0.462,21.33 16.406,25.366 21.489,25.596 c7.509,0.461 38.125,-1.383 25.417,-61.915 z" fill="#965450" id="svg_25" class=""/><path d="M427.06632824707026,130.43566650772095 s0.6930000000000004,-3.229 6.239,-0.6920000000000004 c7.047,3.343 3.235,20.177 -4.622,19.716 c-7.971,-0.3460000000000002 -1.617,-19.024 -1.617,-19.024 z" fill="#965450" id="svg_26" class=""/><path d="M427.0653282470703,130.43566650772095 s0.925,11.529 -1.733,11.645 c-2.7720000000000002,0.11500000000000003 -5.6610000000000005,-20.87 1.964,-20.87 c7.625,0.231 -0.231,9.225 -0.231,9.225 z" fill="#051F38" id="svg_27" class=""/><path d="M427.06632824707026,130.43566650772095 s-5.6610000000000005,-25.597 -39.28,-21.33 c0,0 4.852,-9.57 15.481,-14.067 c14.441,-6.11 36.045,18.448 30.037,34.705 c0,0 -2.7720000000000002,0.3460000000000002 -6.238,0.6920000000000004 z" fill="#34CB79" id="svg_28" class=""/><path d="M441.2763282470703,106.79866650772095 s-1.8490000000000002,-30.554 5.545,-30.554 s-0.5780000000000002,25.712 -0.5780000000000002,25.712 s6.124,-36.78 23.915,-31.246 c17.792,5.534 -12.939,31.246 -12.939,31.246 s14.094,-12.914 19.062,-8.532 C481.13332824707027,97.69066650772095 456.06332824707033,106.33666650772095 456.06332824707033,106.33666650772095 s19.063,-5.534 21.489,3.6900000000000004 c2.426,9.108 -36.854,7.84 -36.276,-3.229 zM379.4673282470703,124.55566650772094 s0,-0.23 0.231,-0.6920000000000004 c0.231,-0.461 0.462,-1.038 1.04,-1.614 c0.5780000000000002,-0.5770000000000002 1.271,-1.268 2.195,-1.73 c0.231,-0.11500000000000003 0.462,-0.23 0.809,-0.3460000000000002 c0.231,-0.11500000000000003 0.5780000000000002,-0.23 0.809,-0.23 c0.3460000000000002,0 0.5770000000000002,-0.11500000000000003 0.924,-0.11500000000000003 h0.924 c0.5780000000000002,0 1.155,0.23 1.733,0.46 c0.5780000000000002,0.231 1.04,0.462 1.502,0.808 c0.462,0.3460000000000002 0.809,0.6920000000000004 1.155,1.038 c0.3470000000000002,0.3460000000000002 0.5780000000000002,0.6910000000000004 0.6930000000000004,1.037 c0.11600000000000003,0.11600000000000003 0.231,0.3460000000000002 0.231,0.462 c0.11600000000000003,0.11500000000000003 0.11600000000000003,0.3450000000000002 0.231,0.46 c0.11600000000000003,0.3470000000000002 0.232,0.5770000000000002 0.232,0.808 c0.11500000000000003,0.46 0.11500000000000003,0.6920000000000004 0.11500000000000003,0.6920000000000004 s-0.231,-0.11600000000000003 -0.6930000000000004,-0.231 l-0.6930000000000004,-0.3460000000000002 c-0.231,-0.11500000000000003 -0.5780000000000002,-0.23 -0.925,-0.461 c-0.3460000000000002,-0.11500000000000003 -0.5770000000000002,-0.3460000000000002 -0.924,-0.461 l-1.04,-0.3460000000000002 l-1.039,-0.3460000000000002 c-0.3470000000000002,0 -0.6930000000000004,-0.11500000000000003 -1.04,-0.11500000000000003 h-1.04 c-0.3460000000000002,0 -0.6930000000000004,0.11500000000000003 -1.04,0.11500000000000003 c-0.3460000000000002,0.11500000000000003 -0.6930000000000004,0.11500000000000003 -1.039,0.23 c-0.3470000000000002,0.11600000000000003 -0.6940000000000004,0.11600000000000003 -1.04,0.231 c-0.6930000000000004,0.23 -1.271,0.3460000000000002 -1.618,0.461 c-0.3460000000000002,0.23 -0.6930000000000004,0.23 -0.6930000000000004,0.23 z" fill="#051F38" id="svg_29" class=""/><path d="M388.3633282470703,156.26166650772095 s18.947,0.5770000000000002 20.217,0.3460000000000002 c1.1560000000000001,-0.23 -10.628,8.994 -20.217,-0.3460000000000002 z" fill="#fff" id="svg_30" class=""/><path d="M389.63432824707036,135.16266650772093 s0,0.23 -0.11600000000000003,0.6920000000000004 c-0.11500000000000003,0.461 -0.231,1.037 -0.462,1.844 c-0.11500000000000003,0.3460000000000002 -0.231,0.807 -0.462,1.153 c-0.11600000000000003,0.231 -0.231,0.462 -0.3470000000000002,0.5770000000000002 c-0.11500000000000003,0.23 -0.3460000000000002,0.461 -0.462,0.5760000000000002 c-0.3460000000000002,0.3460000000000002 -0.6930000000000004,0.807 -1.271,1.038 c-0.11500000000000003,0.11500000000000003 -0.231,0.11500000000000003 -0.462,0.231 l-0.3460000000000002,0.11500000000000003 c-0.231,0.11500000000000003 -0.5780000000000002,0.11500000000000003 -0.924,0.11500000000000003 c-0.5780000000000002,0 -1.271,-0.11500000000000003 -1.733,-0.5760000000000002 a3.14,3.14 0 0 1 -1.04,-1.3840000000000001 c-0.231,-0.461 -0.3470000000000002,-0.922 -0.462,-1.383 c-0.11600000000000003,-0.462 -0.11600000000000003,-0.923 -0.11600000000000003,-1.2690000000000001 c0,-0.807 0,-1.383 0.11600000000000003,-1.844 c0.11500000000000003,-0.462 0.231,-0.6920000000000004 0.231,-0.6920000000000004 s0,1.037 0.3460000000000002,2.536 c0.11600000000000003,0.6920000000000004 0.3470000000000002,1.614 0.809,2.306 c0.231,0.3460000000000002 0.462,0.6920000000000004 0.809,0.923 c0.3460000000000002,0.23 0.6930000000000004,0.3460000000000002 1.04,0.3460000000000002 c0.231,0 0.3460000000000002,0 0.5770000000000002,-0.11600000000000003 l0.3470000000000002,-0.11500000000000003 s0.11500000000000003,-0.11500000000000003 0.231,-0.11500000000000003 c0.3460000000000002,-0.11600000000000003 0.6930000000000004,-0.462 1.04,-0.6920000000000004 c0.3460000000000002,-0.3460000000000002 0.5770000000000002,-0.6920000000000004 0.808,-1.038 c0.231,-0.3460000000000002 0.462,-0.6920000000000004 0.5780000000000002,-1.038 c0.3470000000000002,-0.6910000000000004 0.5780000000000002,-1.268 0.809,-1.614 c0.3460000000000002,-0.3460000000000002 0.462,-0.5760000000000002 0.462,-0.5760000000000002 zM408.69632824707037,136.66166650772095 s0,0.23 -0.11500000000000003,0.6910000000000004 c-0.11600000000000003,0.462 -0.231,1.038 -0.462,1.8450000000000002 c-0.11600000000000003,0.3460000000000002 -0.231,0.807 -0.463,1.153 c-0.11500000000000003,0.231 -0.231,0.461 -0.3460000000000002,0.5770000000000002 c-0.11600000000000003,0.23 -0.3470000000000002,0.461 -0.462,0.5760000000000002 c-0.3470000000000002,0.3460000000000002 -0.6930000000000004,0.807 -1.271,1.038 c-0.11600000000000003,0.11500000000000003 -0.231,0.11500000000000003 -0.462,0.231 l-0.3470000000000002,0.11500000000000003 c-0.231,0.11500000000000003 -0.5770000000000002,0.11500000000000003 -0.924,0.11500000000000003 c-0.5780000000000002,0 -1.271,-0.11500000000000003 -1.733,-0.5760000000000002 a3.148,3.148 0 0 1 -1.04,-1.3840000000000001 c-0.231,-0.461 -0.3460000000000002,-0.922 -0.462,-1.3840000000000001 c-0.11500000000000003,-0.461 -0.11500000000000003,-0.922 -0.11500000000000003,-1.268 c0,-0.807 0,-1.383 0.11500000000000003,-1.8450000000000002 c0.11600000000000003,-0.461 0.231,-0.6910000000000004 0.231,-0.6910000000000004 s0,1.037 0.3470000000000002,2.536 c0.11500000000000003,0.6920000000000004 0.3460000000000002,1.614 0.809,2.306 c0.231,0.3460000000000002 0.462,0.6920000000000004 0.808,0.923 c0.3470000000000002,0.23 0.6930000000000004,0.3450000000000002 1.04,0.3450000000000002 c0.231,0 0.3470000000000002,0 0.5780000000000002,-0.11500000000000003 l0.3460000000000002,-0.11500000000000003 s0.11600000000000003,-0.11500000000000003 0.231,-0.11500000000000003 c0.3470000000000002,-0.11600000000000003 0.6930000000000004,-0.462 1.04,-0.6920000000000004 c0.3470000000000002,-0.3460000000000002 0.5780000000000002,-0.6920000000000004 0.809,-1.038 c0.231,-0.3460000000000002 0.462,-0.6920000000000004 0.5770000000000002,-1.038 c0.3470000000000002,-0.6910000000000004 0.5780000000000002,-1.268 0.809,-1.614 c0.3470000000000002,-0.3460000000000002 0.462,-0.5760000000000002 0.462,-0.5760000000000002 z" fill="#1F2733" id="svg_31" class=""/><path d="M429.7233282470703,146.23166650772094 c0.3460000000000002,-0.462 0.5770000000000002,-0.808 0.808,-1.2690000000000001 c0.231,-0.461 0.3470000000000002,-0.922 0.462,-1.383 v-0.6920000000000004 c0,-0.11500000000000003 -0.11500000000000003,-0.231 -0.11500000000000003,-0.231 c0,-0.11500000000000003 -0.11600000000000003,-0.23 -0.231,-0.23 l-0.231,-0.231 l-0.231,-0.231 c-0.11600000000000003,-0.11500000000000003 -0.231,-0.11500000000000003 -0.3470000000000002,-0.11500000000000003 l-0.3460000000000002,-0.11500000000000003 l-0.232,-0.11500000000000003 v-0.231 c-0.3460000000000002,-1.268 -0.462,-2.4210000000000003 -0.5770000000000002,-3.6900000000000004 a4.929,4.929 0 0 1 0,-1.844 c0,-0.6920000000000004 0.11500000000000003,-1.2690000000000001 0.3460000000000002,-1.96 c0.11600000000000003,-0.3460000000000002 0.3470000000000002,-0.6920000000000004 0.6940000000000004,-0.923 c0.3460000000000002,-0.23 0.808,-0.461 1.155,-0.3460000000000002 c0.462,0 0.6930000000000004,0.11600000000000003 1.04,0.231 c0.3460000000000002,0.11500000000000003 0.6930000000000004,0.231 0.924,0.461 c0.231,0.231 0.5780000000000002,0.461 0.6930000000000004,0.6920000000000004 c0.231,0.231 0.3470000000000002,0.5760000000000002 0.462,0.807 c0.231,0.5760000000000002 0.3470000000000002,1.268 0.231,1.8450000000000002 c-0.11500000000000003,-0.5770000000000002 -0.231,-1.153 -0.5770000000000002,-1.73 c-0.11600000000000003,-0.23 -0.3470000000000002,-0.461 -0.5780000000000002,-0.6920000000000004 c-0.231,-0.23 -0.462,-0.3450000000000002 -0.6930000000000004,-0.461 c-0.231,-0.11500000000000003 -0.462,-0.23 -0.809,-0.23 c-0.231,0 -0.5780000000000002,-0.11600000000000003 -0.809,-0.11600000000000003 c-0.462,0 -0.6930000000000004,0.3460000000000002 -0.808,0.807 c-0.3470000000000002,1.038 -0.231,2.191 -0.231,3.3440000000000003 c0.11500000000000003,1.153 0.231,2.4210000000000003 0.462,3.574 l-0.231,-0.3450000000000002 l0.3460000000000002,0.23 c0.11600000000000003,0.11500000000000003 0.231,0.11500000000000003 0.3470000000000002,0.231 l0.3460000000000002,0.23 l0.3470000000000002,0.3460000000000002 c0.11600000000000003,0.11600000000000003 0.231,0.231 0.231,0.461 c0.11600000000000003,0.11600000000000003 0.11600000000000003,0.3460000000000002 0.11600000000000003,0.462 c0.11500000000000003,0.3450000000000002 0,0.5760000000000002 0,0.922 c-0.11600000000000003,0.5760000000000002 -0.463,1.038 -0.809,1.499 c-0.3470000000000002,0.3460000000000002 -0.809,0.807 -1.155,1.038 zM391.3673282470703,151.07366650772093 c-0.5780000000000002,0.11500000000000003 -1.04,0.11500000000000003 -1.502,0.11500000000000003 c-0.462,0 -0.924,-0.11500000000000003 -1.271,-0.23 c-0.462,-0.11600000000000003 -0.809,-0.3460000000000002 -1.155,-0.461 c-0.231,-0.11600000000000003 -0.3470000000000002,-0.231 -0.5780000000000002,-0.3460000000000002 c-0.231,-0.11600000000000003 -0.3460000000000002,-0.231 -0.5770000000000002,-0.3460000000000002 l-0.6940000000000004,-0.5770000000000002 l0.11600000000000003,-0.461 a909.005,909.005 0 0 1 3.466,-9.8 a337.012,337.012 0 0 1 3.697,-9.801 c-0.809,3.3440000000000003 -1.733,6.803 -2.542,10.147 l-2.773,10.031 l-0.462,-1.038 c0.231,0 0.462,0.11500000000000003 0.6930000000000004,0.11500000000000003 a0.8800000000000002,0.8800000000000002 0 0 1 0.5780000000000002,0.231 c0.3470000000000002,0.11500000000000003 0.809,0.3460000000000002 1.155,0.5760000000000002 c0.3470000000000002,0.231 0.6940000000000004,0.5770000000000002 1.04,0.923 c0.231,0.11500000000000003 0.5780000000000002,0.461 0.809,0.922 z" fill="#76413B" id="svg_32" class=""/><path d="M398.18332824707034,123.17166650772094 s0.11600000000000003,-0.3460000000000002 0.462,-0.6920000000000004 c0.231,-0.23 0.3470000000000002,-0.461 0.6930000000000004,-0.807 c0.3470000000000002,-0.23 0.5780000000000002,-0.5770000000000002 1.04,-0.807 c0.3470000000000002,-0.23 0.809,-0.5770000000000002 1.3860000000000001,-0.807 c0.463,-0.23 1.04,-0.462 1.618,-0.6920000000000004 c0.5780000000000002,-0.11500000000000003 1.271,-0.3460000000000002 1.964,-0.3460000000000002 h1.04 l1.039,0.11500000000000003 c0.6940000000000004,0 1.387,0.3460000000000002 1.964,0.462 c0.5780000000000002,0.23 1.1560000000000001,0.5760000000000002 1.733,0.807 c0.5780000000000002,0.3460000000000002 1.04,0.6910000000000004 1.387,1.037 c0.462,0.3460000000000002 0.808,0.807 1.04,1.153 c0.3460000000000002,0.3460000000000002 0.5770000000000002,0.6920000000000004 0.808,1.038 c0.231,0.3460000000000002 0.3470000000000002,0.6920000000000004 0.462,0.922 c0.231,0.462 0.3470000000000002,0.807 0.3470000000000002,0.807 s-0.3470000000000002,-0.11500000000000003 -0.809,-0.3450000000000002 c-0.231,-0.11600000000000003 -0.5770000000000002,-0.231 -0.924,-0.462 c-0.3470000000000002,-0.23 -0.6930000000000004,-0.3460000000000002 -1.155,-0.46 c-0.3470000000000002,-0.11600000000000003 -0.809,-0.3470000000000002 -1.271,-0.5770000000000002 c-0.462,-0.11600000000000003 -0.924,-0.3460000000000002 -1.3860000000000001,-0.462 l-1.387,-0.3450000000000002 c-0.462,0 -0.924,-0.231 -1.502,-0.231 l-0.6930000000000004,-0.11500000000000003 h-2.195 c-0.462,0 -0.924,0 -1.3860000000000001,0.11500000000000003 c-0.462,0 -0.925,0.11500000000000003 -1.387,0.11500000000000003 c-0.808,0.11600000000000003 -1.617,0.23 -2.079,0.3460000000000002 c-0.462,0.23 -0.809,0.23 -0.809,0.23 z" fill="#051F38" id="svg_33" class=""/><path d="M382.24032824707035,517.491666507721 c0,4.151 -3.35,7.61 -7.509,7.725 c-4.159,0 -7.625,-3.343 -7.741,-7.494 l-0.3460000000000002,-24.443 c0,-4.151 3.35,-7.61 7.509,-7.725 c4.159,0 7.625,3.343 7.74,7.494 l0.3470000000000002,24.443 zM275.83732824707033,518.761666507721 c0,4.15 -3.35,7.609 -7.509,7.725 c-4.159,0 -7.625,-3.3440000000000003 -7.741,-7.495 l-0.3460000000000002,-24.443 c0,-4.151 3.35,-7.61 7.509,-7.725 c4.159,0 7.625,3.3440000000000003 7.741,7.494 l0.3460000000000002,24.444 z" fill="#091E1D" id="svg_34" class=""/><path d="M373.69132824707026,500.08166650772097 c0.11500000000000003,9.455 -7.51,17.18 -16.983,17.295 l-71.166,0.807 c-9.474,0.11600000000000003 -17.214,-7.494 -17.33,-16.949 l-7.625,-161.648 c-0.11500000000000003,-9.454 7.51,-17.179 16.983,-17.295 l82.604,-1.037 c9.473,-0.11600000000000003 17.214,7.494 17.329,16.948 l-3.8120000000000003,161.879 z" fill="#34CB79" id="svg_35" class=""/><path opacity=".1" d="M377.0413282470703,354.45966650772095 l0.3470000000000002,-16.026 c-0.11600000000000003,-9.454 -7.856,-17.064 -17.33,-16.949 l-82.604,1.038 c-9.473,0.11500000000000003 -17.098,7.84 -16.982,17.295 l0.808,16.026 l115.761,-1.3840000000000001 z" fill="#161826" id="svg_36" class=""/><path d="M391.1363282470703,334.398666507721 c0,2.6510000000000002 -2.08,4.727 -4.737,4.8420000000000005 l-134.939,1.614 c-2.657,0 -4.736,-2.075 -4.852,-4.727 l-0.231,-17.064 c0,-2.652 2.079,-4.727 4.737,-4.843 l134.938,-1.614 c2.6580000000000004,0 4.737,2.076 4.853,4.727 l0.231,17.065 z" fill="#34CB79" id="svg_37" class=""/><path d="M319.5073282470703,381.785666507721 l15.712,-9.454 l-3.8120000000000003,9.8 l-11.9,-0.3460000000000002 z" fill="#fff" id="svg_38" class=""/><path d="M313.6163282470703,366.9126665077209 s1.271,0 3.235,2.997 c1.964,2.998 6.354,11.069 6.354,11.069 l7.971,-3.574 l1.8490000000000002,-3.113 s-3.466,-6.918 -6.239,-7.3790000000000004 h-13.17 z" fill="#fff" id="svg_39" class=""/><path d="M309.22532824707037,368.987666507721 s2.426,-2.652 4.39,-1.268 c1.964,1.3840000000000001 5.43,7.149 5.43,7.149 l-5.6610000000000005,9.915 l-10.166,-5.649 l6.007,-10.147 zM326.6713282470703,394.12266650772096 l0.808,18.217 l-6.816,-7.955 l6.008,-10.262 z" fill="#fff" id="svg_40" class=""/><path d="M342.61432824707026,395.96766650772093 s-0.5780000000000002,1.153 -4.16,1.499 c-3.581,0.3460000000000002 -12.823,0.3460000000000002 -12.823,0.3460000000000002 l-0.6940000000000004,8.762 l1.8490000000000002,3.113 s7.74,0.3460000000000002 9.473,-1.96 l6.355,-11.76 z" fill="#fff" id="svg_41" class=""/><path d="M342.72932824707027,391.124666507721 s1.271,3.3440000000000003 -0.924,4.497 c-2.08,1.038 -8.896,1.268 -8.896,1.268 l-6.123,-9.685 l9.82,-6.341 l6.123,10.261 zM312.8053282470703,393.89266650772095 l-16.174,-8.533 l10.398,-1.844 l5.776,10.377 z" fill="#fff" id="svg_42" class=""/><path d="M303.2183282470703,406.69066650772095 s-0.6930000000000004,-1.038 0.809,-4.266 c1.501,-3.229 6.123,-11.184 6.123,-11.184 l-7.163,-4.958 l-3.582,0.11500000000000003 s-4.159,6.572 -3.119,9.109 l6.932,11.184 z" fill="#fff" id="svg_43" class=""/><path d="M307.2613282470703,409.22666650772095 s-3.581,-0.6920000000000004 -3.35,-2.998 c0.11600000000000003,-2.4210000000000003 3.35,-8.301 3.35,-8.301 l11.438,-0.3460000000000002 l0.462,11.645 h-11.9 z" fill="#fff" id="svg_44" class=""/><path d="M71.58032824707033,471.8336665077209 s-2.541,40.701 -4.736,41.508 c-8.434,2.882 -72.091,19.024 -11.9,-8.071 l-1.617,-29.632 l18.253,-3.805 z" fill="#051F38" id="svg_45" class=""/><path d="M68.92332824707029,503.42566650772096 c1.502,-12.337 2.657,-31.592 2.657,-31.592 l-18.253,3.805 l1.502,26.404 c4.505,1.268 9.704,1.383 14.094,1.383 z" fill="#041523" id="svg_46" class=""/><path d="M29.41232824707032,519.452666507721 c-1.848,4.496 31.424,-4.036 37.432,-6.111 c0.11500000000000003,-0.11500000000000003 0.3460000000000002,-0.3460000000000002 0.5770000000000002,-0.923 c-7.509,2.076 -30.268,7.264 -38.009,7.034 z" fill="#fff" id="svg_47" class=""/><path d="M110.5143282470703,469.6436665077209 s3.351,40.7 5.6610000000000005,41.392 c8.549,2.7670000000000003 72.437,17.641000000000002 11.669,-8.302 l1.039,-29.631 l-18.369,-3.459 z" fill="#051F38" id="svg_48" class=""/><path d="M113.8653282470703,501.1196665077209 c-1.733,-12.221 -3.351,-31.476 -3.351,-31.476 l18.369,3.459 l-0.924,26.403 c-4.506,1.3840000000000001 -9.704,1.499 -14.094,1.614 z" fill="#041523" id="svg_49" class=""/><path d="M153.72232824707032,516.454666507721 c1.964,4.496 -31.539,-3.459 -37.547,-5.4190000000000005 c-0.231,0 -0.3460000000000002,-0.3460000000000002 -0.5770000000000002,-0.923 c7.509,2.076 30.384,6.803 38.124,6.3420000000000005 z" fill="#fff" id="svg_50" class=""/><path d="M121.72032824707031,249.88466650772094 s16.636,134.092 13.286,242.588 c0,0 -19.871,5.534 -25.07,1.499 c-4.506,-25.712 -3.928,-75.751 -10.629,-112.878 c-6.354,-35.05 -8.895,-63.76 -8.895,-63.76 l-2.08,-2.306 s-13.633000000000001,169.489 -16.636,182.403 c-17.214,4.035 -22.644,-0.6920000000000004 -22.644,-0.6920000000000004 s-7.856,-212.034 -3.004,-246.278 c6.239,-44.735 75.672,-0.5760000000000002 75.672,-0.5760000000000002 z" fill="#34CB79" id="svg_51" class=""/><path opacity=".1" d="M124.7233282470703,277.67066650772097 c-1.733,-17.295 -3.12,-27.671 -3.12,-27.671 s-69.317,-44.16 -75.672,0.5760000000000002 c-0.5770000000000002,4.151 -0.924,10.953 -1.27,19.601 c5.198,2.882 70.126,12.106 80.062,7.494 zM89.1413282470703,313.64466650772096 c0.808,9.108 4.9670000000000005,38.51 10.166,67.449 c6.7010000000000005,37.242 6.123,87.166 10.629,112.878 c5.199,4.035 25.07,-1.499 25.07,-1.499 c1.964,-66.758 -3.466,-143.201 -8.087,-192.087 c-10.975,6.917 -24.955,10.261 -37.778,13.259 z" fill="#161826" id="svg_52" class=""/><path d="M95.0333282470703,132.62566650772095 c0.11500000000000003,-14.066 1.155,-32.63 1.155,-32.63 l-27.727,-7.609 s0.924,25.135 1.733,40.47 c-12.593,4.266 -26.919,12.337 -26.919,12.337 l52.335,13.259 l18.601,-17.986 s-9.358,-4.728 -19.178,-7.841 z" fill="#FFB39F" id="svg_53" class=""/><path d="M95.0333282470703,132.62566650772095 c0.11500000000000003,-14.066 1.155,-32.63 1.155,-32.63 l-27.727,-7.609 s0.924,25.135 1.733,40.47 c-12.593,4.266 -26.919,12.337 -26.919,12.337 l52.335,13.259 l24.724,-21.215 s-15.366,-5.7650000000000015 -25.301,-4.612 z" fill="#E09B8D" id="svg_54" class=""/><path d="M66.03532824707031,65.75266650772095 s7.2780000000000005,-23.52 26.456,-19.831 c19.178,3.6900000000000004 21.951,28.71 24.377,45.543 c2.426,16.949 -3.004,32.168 -18.023,34.013 c-13.055,1.614 -35.814,-0.923 -32.81,-59.725 z" fill="#FFB39F" id="svg_55" class=""/><path d="M66.95932824707029,85.46866650772094 s-1.155,-3.113 -5.892,0.3460000000000002 c-6.008,4.381 0.11500000000000003,20.523 7.394,18.794 c7.2780000000000005,-1.73 -1.502,-19.14 -1.502,-19.14 z" fill="#FFB39F" id="svg_56" class=""/><path d="M60.258328247070324,52.26266650772095 c0.462,-0.11500000000000003 9.474,-0.807 3.466,-0.23 c5.545,5.995 4.968,7.494 12.593,8.878 c4.043,12.452 -3.928,19.946 -3.928,19.946 l2.195,14.99 l-5.777,0.5760000000000002 s0.11600000000000003,-10.377 -4.274,-11.3 c-4.39,-0.922 -5.6610000000000005,4.382 -5.6610000000000005,4.382 c-9.127,-11.53 -18.37,-34.129 1.3860000000000001,-37.242 z" fill="#051F38" id="svg_57" class=""/><path d="M112.5933282470703,43.84666650772095 C116.2903282470703,34.73666650772095 110.0523282470703,26.666666507720947 110.0523282470703,26.666666507720947 c1.039,3.3440000000000003 0.5770000000000002,6.457 -0.463,8.993 c-0.6930000000000004,-2.536 -1.964,-5.303 -4.274,-8.07 c0,0 0.6930000000000004,9.223 -11.9,8.07 c-12.593,-1.153 -34.659,0.5770000000000002 -35.583,20.062 c-1.04,19.486 17.792,5.304 17.792,5.304 s37.547,10.492 42.977,-19.716 l-6.008,2.537 zM94.8023282470703,77.51466650772095 s-0.3470000000000002,0 -0.809,-0.11600000000000003 a38.975,38.975 0 0 0 -2.079,-0.3460000000000002 c-0.463,-0.11500000000000003 -0.809,-0.11500000000000003 -1.271,-0.11500000000000003 c-0.462,-0.11500000000000003 -0.924,-0.11500000000000003 -1.387,-0.11500000000000003 h-2.195 l-0.6930000000000004,0.11500000000000003 c-0.462,0 -0.924,0.11500000000000003 -1.502,0.23 l-1.3860000000000001,0.3470000000000002 c-0.462,0.11500000000000003 -0.924,0.3460000000000002 -1.3860000000000001,0.46 c-0.463,0.11600000000000003 -0.809,0.3470000000000002 -1.271,0.462 c-0.3470000000000002,0.11500000000000003 -0.809,0.23 -1.04,0.461 a5.62,5.62 0 0 0 -0.809,0.3460000000000002 c-0.462,0.23 -0.808,0.3460000000000002 -0.808,0.3460000000000002 s0.11500000000000003,-0.3460000000000002 0.3460000000000002,-0.807 c0.11600000000000003,-0.23 0.231,-0.5770000000000002 0.462,-0.922 c0.231,-0.3460000000000002 0.462,-0.6920000000000004 0.809,-1.038 c0.3470000000000002,-0.3460000000000002 0.5780000000000002,-0.807 1.04,-1.153 c0.462,-0.3460000000000002 0.924,-0.6920000000000004 1.502,-1.038 c0.5770000000000002,-0.23 1.155,-0.5760000000000002 1.733,-0.807 c0.6930000000000004,-0.23 1.27,-0.3460000000000002 1.964,-0.461 l1.039,-0.11600000000000003 c0.3470000000000002,0 0.6940000000000004,0 1.04,0.11600000000000003 c0.3470000000000002,0 0.6930000000000004,0.11500000000000003 0.924,0.11500000000000003 c0.3470000000000002,0.11500000000000003 0.5780000000000002,0.11500000000000003 0.925,0.23 c0.5770000000000002,0.231 1.155,0.3470000000000002 1.617,0.6920000000000004 c0.462,0.231 0.924,0.5770000000000002 1.3860000000000001,0.808 c0.3470000000000002,0.23 0.6940000000000004,0.5760000000000002 1.04,0.807 c0.231,0.23 0.462,0.5760000000000002 0.6930000000000004,0.6920000000000004 c-0.11500000000000003,0.46 0.11600000000000003,0.807 0.11600000000000003,0.807 zM114.32632824707031,76.93666650772096 s-0.231,-0.11500000000000003 -0.6930000000000004,-0.23 c-0.462,-0.11600000000000003 -1.04,-0.3460000000000002 -1.618,-0.5770000000000002 l-1.039,-0.3460000000000002 c-0.3470000000000002,-0.11500000000000003 -0.6940000000000004,-0.23 -1.04,-0.23 c-0.3470000000000002,0 -0.6930000000000004,-0.11600000000000003 -1.04,-0.231 c-0.11500000000000003,0 -0.3470000000000002,0 -0.462,-0.11500000000000003 h-0.462 c-0.3470000000000002,-0.11600000000000003 -0.6930000000000004,0.11500000000000003 -1.04,0 c-0.3470000000000002,0.11500000000000003 -0.6930000000000004,0.11500000000000003 -1.04,0.23 l-1.039,0.3460000000000002 c-0.3470000000000002,0.11600000000000003 -0.6940000000000004,0.23 -0.925,0.3460000000000002 c-0.3460000000000002,0.11500000000000003 -0.6930000000000004,0.23 -0.924,0.3460000000000002 c-0.231,0.11500000000000003 -0.462,0.23 -0.6930000000000004,0.23 c-0.462,0.11600000000000003 -0.6930000000000004,0.231 -0.6930000000000004,0.231 s0,-0.23 0.231,-0.6920000000000004 c0.11500000000000003,-0.23 0.11500000000000003,-0.46 0.3460000000000002,-0.807 c0.11600000000000003,-0.3460000000000002 0.3470000000000002,-0.5760000000000002 0.5780000000000002,-0.922 c0.231,-0.3460000000000002 0.462,-0.6920000000000004 0.809,-1.038 c0.3460000000000002,-0.3460000000000002 0.808,-0.5760000000000002 1.155,-0.922 c0.462,-0.23 1.04,-0.461 1.502,-0.6920000000000004 c0.5780000000000002,-0.11500000000000003 1.155,-0.23 1.733,-0.23 h0.924 c0.3470000000000002,0 0.5780000000000002,0.11500000000000003 0.809,0.23 c0.231,0 0.5770000000000002,0.11500000000000003 0.808,0.23 l0.6940000000000004,0.3460000000000002 c0.924,0.5770000000000002 1.617,1.153 2.079,1.8450000000000002 c0.462,0.6920000000000004 0.6930000000000004,1.2690000000000001 0.924,1.73 c0.11600000000000003,0.6910000000000004 0.11600000000000003,0.922 0.11600000000000003,0.922 z" fill="#051F38" id="svg_58" class=""/><path d="M100.11632824707033,78.20466650772094 c0.6930000000000004,1.5 1.387,3.114 2.08,4.612 c0.3460000000000002,0.807 0.5770000000000002,1.5 0.924,2.306 l0.924,2.306 l0.924,2.306 c0.3470000000000002,0.807 0.5780000000000002,1.5 0.925,2.306 l0.462,1.153 c0.11500000000000003,0.3460000000000002 0.3460000000000002,0.807 0.462,1.153 c0.3470000000000002,0.6920000000000004 0.6930000000000004,1.3840000000000001 1.04,2.19 l0.3460000000000002,0.923 l-0.6930000000000004,0.3460000000000002 c-1.04,0.461 -2.079,1.038 -3.235,1.499 c-1.039,0.461 -2.195,0.922 -3.35,1.268 c0.924,-0.807 1.848,-1.499 2.773,-2.19 c0.924,-0.6920000000000004 1.964,-1.3840000000000001 2.888,-2.076 l-0.3470000000000002,1.2690000000000001 c-0.462,-0.6920000000000004 -0.924,-1.5 -1.3860000000000001,-2.191 c-0.462,-0.6920000000000004 -0.809,-1.499 -1.155,-2.306 l-0.5780000000000002,-1.153 l-0.462,-1.153 c-0.231,-0.807 -0.5780000000000002,-1.614 -0.809,-2.4210000000000003 l-0.6930000000000004,-2.422 c-0.231,-0.807 -0.3470000000000002,-1.614 -0.5780000000000002,-2.42 c-0.11500000000000003,-1.846 -0.3460000000000002,-3.575 -0.462,-5.305 zM66.61232824707031,101.26466650772095 a3.603,3.603 0 0 1 -1.27,-1.038 c-0.3470000000000002,-0.3460000000000002 -0.809,-0.807 -1.04,-1.383 a2.162,2.162 0 0 1 -0.231,-0.923 v-0.46 c0,-0.11600000000000003 0.11500000000000003,-0.3470000000000002 0.11500000000000003,-0.462 c0.11600000000000003,-0.3460000000000002 0.3470000000000002,-0.5760000000000002 0.5780000000000002,-0.807 l0.3460000000000002,-0.3460000000000002 l0.3470000000000002,-0.23 l-0.231,0.3450000000000002 c0,-1.268 0,-2.536 -0.11600000000000003,-3.6900000000000004 c-0.11500000000000003,-1.267 -0.231,-2.536 -0.6930000000000004,-3.573 c-0.11500000000000003,-0.231 -0.231,-0.462 -0.462,-0.5770000000000002 a0.8800000000000002,0.8800000000000002 0 0 0 -0.5770000000000002,-0.23 c-0.11600000000000003,0 -0.232,0 -0.3470000000000002,0.11500000000000003 c-0.11600000000000003,0 -0.3470000000000002,0.11500000000000003 -0.462,0.11500000000000003 c-0.231,0.11500000000000003 -0.462,0.23 -0.6930000000000004,0.461 c-0.231,0.23 -0.463,0.3460000000000002 -0.5780000000000002,0.5770000000000002 c-0.11600000000000003,0.23 -0.3470000000000002,0.461 -0.462,0.807 a4.773,4.773 0 0 0 -0.3470000000000002,1.8450000000000002 c-0.231,-0.5770000000000002 -0.231,-1.2690000000000001 -0.11500000000000003,-1.96 c0,-0.3460000000000002 0.11500000000000003,-0.6920000000000004 0.3460000000000002,-0.923 c0.11600000000000003,-0.3460000000000002 0.3470000000000002,-0.5760000000000002 0.5780000000000002,-0.807 l0.3470000000000002,-0.3460000000000002 l0.462,-0.3460000000000002 c0.11500000000000003,-0.11500000000000003 0.3460000000000002,-0.11500000000000003 0.462,-0.23 c0.11500000000000003,-0.11600000000000003 0.3460000000000002,-0.11600000000000003 0.5770000000000002,-0.23 c0.463,-0.11600000000000003 0.925,0 1.271,0.3450000000000002 c0.3470000000000002,0.23 0.5780000000000002,0.5770000000000002 0.6930000000000004,0.922 c0.3470000000000002,0.6920000000000004 0.463,1.2690000000000001 0.6940000000000004,1.96 c0.11500000000000003,0.6920000000000004 0.231,1.2690000000000001 0.231,1.96 a22.305,22.305 0 0 1 0,3.92 v0.231 l-0.231,0.11600000000000003 c-0.231,0.11500000000000003 -0.462,0.23 -0.5780000000000002,0.46 l-0.462,0.462 c-0.11600000000000003,0.11500000000000003 -0.11600000000000003,0.23 -0.11600000000000003,0.3460000000000002 c0,0.11500000000000003 -0.11500000000000003,0.23 -0.11500000000000003,0.3460000000000002 v0.6910000000000004 c0.11500000000000003,0.462 0.3460000000000002,0.923 0.6930000000000004,1.3840000000000001 c0.6930000000000004,0.461 1.04,0.807 1.3860000000000001,1.153 z" fill="#DD9078" id="svg_59" class=""/><path d="M84.75032824707029,88.46666650772094 s0.11600000000000003,0.23 0.232,0.6920000000000004 c0.11500000000000003,0.23 0.11500000000000003,0.46 0.231,0.6920000000000004 c0.11500000000000003,0.23 0.231,0.5760000000000002 0.462,0.922 c0.11500000000000003,0.3460000000000002 0.462,0.5760000000000002 0.5770000000000002,0.922 l0.462,0.462 c0.11600000000000003,0.11500000000000003 0.232,0.23 0.463,0.3450000000000002 c0.3460000000000002,0.231 0.6930000000000004,0.3460000000000002 1.039,0.462 c0.231,0 0.3470000000000002,0.11500000000000003 0.5780000000000002,0.11500000000000003 c0.231,0 0.3470000000000002,0 0.5780000000000002,-0.11500000000000003 l0.5770000000000002,-0.231 l0.5780000000000002,-0.3460000000000002 c0.3470000000000002,-0.23 0.5780000000000002,-0.5760000000000002 0.809,-0.922 c0.231,-0.3460000000000002 0.3460000000000002,-0.6920000000000004 0.5770000000000002,-1.038 c0.11600000000000003,-0.3460000000000002 0.231,-0.6920000000000004 0.231,-1.153 c0,-0.3460000000000002 0,-0.6920000000000004 0.11600000000000003,-0.922 v-0.807 v-0.6920000000000004 s0.11500000000000003,0.23 0.231,0.6920000000000004 c0.11600000000000003,0.23 0.11600000000000003,0.46 0.231,0.807 c0,0.3460000000000002 0.11600000000000003,0.6910000000000004 0.11600000000000003,1.037 s0,0.807 -0.11600000000000003,1.2690000000000001 c-0.11500000000000003,0.46 -0.231,0.922 -0.462,1.383 a3.607,3.607 0 0 1 -1.04,1.2690000000000001 l-0.6930000000000004,0.46 c-0.231,0.11600000000000003 -0.5780000000000002,0.231 -0.809,0.3470000000000002 c-0.231,0 -0.5770000000000002,0.11500000000000003 -0.924,0.11500000000000003 c-0.231,0 -0.5780000000000002,-0.11500000000000003 -0.809,-0.11500000000000003 c-0.5770000000000002,-0.11600000000000003 -1.039,-0.462 -1.502,-0.808 c-0.462,-0.3450000000000002 -0.6930000000000004,-0.807 -0.924,-1.1520000000000001 c-0.231,-0.462 -0.462,-0.808 -0.5770000000000002,-1.153 c-0.11600000000000003,-0.3460000000000002 -0.232,-0.6920000000000004 -0.232,-1.038 v-0.807 v-0.6920000000000004 zM105.66232824707032,85.00766650772096 s0.11500000000000003,0.23 0.231,0.6920000000000004 c0.11500000000000003,0.23 0.11500000000000003,0.461 0.231,0.6920000000000004 c0.11500000000000003,0.23 0.231,0.5760000000000002 0.462,0.922 c0.11500000000000003,0.3460000000000002 0.462,0.5770000000000002 0.5780000000000002,0.922 l0.462,0.462 c0.11500000000000003,0.11500000000000003 0.231,0.23 0.462,0.3460000000000002 c0.3460000000000002,0.23 0.6930000000000004,0.3450000000000002 1.04,0.46 c0.231,0 0.3460000000000002,0.11600000000000003 0.5770000000000002,0.11600000000000003 c0.231,0 0.3470000000000002,0 0.5780000000000002,-0.11500000000000003 l0.5770000000000002,-0.23 l0.5780000000000002,-0.3470000000000002 c0.3470000000000002,-0.23 0.5780000000000002,-0.5760000000000002 0.809,-0.922 c0.231,-0.3460000000000002 0.3460000000000002,-0.6920000000000004 0.5770000000000002,-1.038 c0.11600000000000003,-0.3460000000000002 0.232,-0.6920000000000004 0.232,-1.153 c0,-0.3460000000000002 0,-0.6920000000000004 0.11500000000000003,-0.922 v-0.807 v-0.6920000000000004 s0.11600000000000003,0.23 0.231,0.6920000000000004 c0.11600000000000003,0.23 0.11600000000000003,0.46 0.231,0.807 c0,0.3460000000000002 0.11600000000000003,0.6910000000000004 0.11600000000000003,1.037 s0,0.808 -0.11600000000000003,1.2690000000000001 c-0.11500000000000003,0.46 -0.231,0.922 -0.462,1.383 a3.607,3.607 0 0 1 -1.04,1.2690000000000001 l-0.6930000000000004,0.46 c-0.231,0.11600000000000003 -0.5780000000000002,0.231 -0.809,0.3470000000000002 c-0.231,0 -0.5770000000000002,0.11500000000000003 -0.924,0.11500000000000003 c-0.231,0 -0.5770000000000002,-0.11500000000000003 -0.809,-0.11500000000000003 c-0.5770000000000002,-0.11600000000000003 -1.039,-0.462 -1.501,-0.807 c-0.463,-0.3460000000000002 -0.6940000000000004,-0.807 -0.925,-1.153 c-0.231,-0.462 -0.462,-0.807 -0.5770000000000002,-1.153 c-0.11600000000000003,-0.3460000000000002 -0.231,-0.6920000000000004 -0.231,-1.038 v-0.807 v-0.6920000000000004 z" fill="#1F2733" id="svg_60" class=""/><path d="M86.57032824707034,104.76966650772094 s-0.11600000000000003,0 0,0.11600000000000003 c0.11500000000000003,0.11500000000000003 0.3460000000000002,0.23 0.5780000000000002,0.3460000000000002 c0.462,0.3460000000000002 1.27,0.6910000000000004 2.195,1.153 c0.924,0.46 2.079,0.922 3.234,1.268 c0.5780000000000002,0.23 1.271,0.3460000000000002 1.8490000000000002,0.461 c0.5780000000000002,0.11500000000000003 1.271,0.23 1.964,0.3460000000000002 c1.271,0.11500000000000003 2.542,0.23 3.8120000000000003,0.11500000000000003 a14.348,14.348 0 0 0 3.351,-0.6920000000000004 c0.924,-0.3450000000000002 1.733,-0.5760000000000002 2.31,-0.807 c0.5780000000000002,-0.23 0.925,-0.3460000000000002 0.925,-0.3460000000000002 s-0.231,0.3460000000000002 -0.6940000000000004,0.6920000000000004 c-0.462,0.461 -1.155,1.038 -2.079,1.614 c-0.924,0.5770000000000002 -2.195,1.153 -3.582,1.3840000000000001 c-1.3860000000000001,0.3460000000000002 -2.888,0.3460000000000002 -4.39,0.23 c-0.6930000000000004,-0.11500000000000003 -1.502,-0.23 -2.195,-0.46 c-0.6930000000000004,-0.231 -1.3860000000000001,-0.462 -1.964,-0.808 a13.176,13.176 0 0 1 -3.119,-1.96 c-0.809,-0.6910000000000004 -1.502,-1.383 -1.8490000000000002,-1.96 c-0.231,-0.23 -0.3460000000000002,-0.461 -0.3460000000000002,-0.6920000000000004 c-0.11600000000000003,0 -0.11600000000000003,0.11600000000000003 0,0 z" fill="#DD9078" id="svg_61" class=""/><path d="M104.6223282470703,132.27966650772095 s29.576,-3.113 33.388,19.486 c3.813,22.714 3.466,28.824 3.466,28.824 l-28.882,-4.266 l-7.9719999999999995,-44.044 z" fill="#63C" id="svg_62" class=""/><path d="M129.57532824707033,150.49666650772093 c-1.733,-14.413 -16.405,-17.526 -24.954,-18.218 c-3.813,5.304 -9.127,9.109 -16.405,9.34 c-8.319,0.23 -15.944,-2.652 -19.987,-8.994 c-12.939,1.499 -25.763,5.189 -28.652,13.951 c-6.123,18.448 -0.808,119.911 -0.808,119.911 s51.757,8.878 94.272,0.807 c-0.11500000000000003,0.11500000000000003 -1.155,-97.543 -3.466,-116.797 z" fill="#63C" id="svg_63" class=""/><path opacity=".2" d="M36.57532824707033,195.92466650772096 c0.231,33.437 2.195,70.678 2.195,70.678 s51.757,8.878 94.272,0.807 c0,0 -0.809,-74.137 -2.542,-105.959 c-31.308,11.645 -62.617,23.175 -93.925,34.474 z" fill="#352C38" id="svg_64" class=""/><path d="M68.46032824707032,222.67366650772095 s-1.155,-3.343 4.159,-5.534 c5.315,-2.191 60.076,-16.488 63.542,-16.026 c3.465,0.461 45.865,5.534 46.558,7.84 c0.6930000000000004,2.306 -50.718,18.909 -50.718,18.909 l-63.541,-5.189 z" fill="#E1EDFF" id="svg_65" class=""/><path d="M134.89032824707033,232.24366650772095 s-59.96,-0.23 -64.581,-5.649 c-4.621,-5.4190000000000005 -4.737,-9.34 21.489,-4.728 c26.225,4.612 41.359,3.92 41.359,3.92 s48.061,-22.367 49.678,-16.948 c1.502,5.534 6.585,4.15 -47.945,23.405 z" fill="#C0D5FF" id="svg_66" class=""/><path d="M182.7203282470703,208.95366650772095 c-1.502,-5.4190000000000005 -49.678,16.949 -49.678,16.949 h-0.462 c1.039,2.075 1.848,4.035 2.7720000000000002,6.226 c54.068,-19.14 48.985,-17.756 47.368,-23.175 z" fill="#B1C5E8" id="svg_67" class=""/><path d="M66.72732824707032,210.33666650772093 s-1.1560000000000001,-3.343 4.159,-5.534 c5.314,-2.191 60.075,-16.488 63.541,-16.026 c3.466,0.461 45.865,5.534 46.559,7.84 c0.6930000000000004,2.306 -50.718,18.909 -50.718,18.909 l-63.541,-5.189 z" fill="#E1EDFF" id="svg_68" class=""/><path d="M133.15732824707032,220.02266650772094 s-59.96,-0.231 -64.581,-5.65 c-4.621,-5.4190000000000005 -4.737,-9.339 21.488,-4.727 c26.226,4.612 41.36,3.92 41.36,3.92 s48.06,-22.368 49.678,-16.949 c1.3860000000000001,5.4190000000000005 6.585,4.035 -47.945,23.406 z" fill="#C0D5FF" id="svg_69" class=""/><path d="M180.9873282470703,196.73166650772094 c-1.502,-5.4190000000000005 -49.678,16.949 -49.678,16.949 h-0.462 c1.039,2.076 1.848,4.036 2.7720000000000002,6.226 c53.953,-19.255 48.869,-17.871 47.368,-23.175 z" fill="#B1C5E8" id="svg_70" class=""/><path d="M66.49632824707032,200.30566650772096 s-1.04,-2.882 4.043,-4.8420000000000005 c5.084,-1.96 58.112,-14.528 61.462,-14.067 c3.351,0.462 44.364,4.958 45.057,6.918 c0.6930000000000004,1.96 -49.1,16.719 -49.1,16.719 l-61.462,-4.728 z" fill="#E1EDFF" id="svg_71" class=""/><path d="M130.73132824707034,208.83866650772094 s-57.996,-0.231 -62.501,-4.958 c-4.506,-4.728 -4.506,-8.187 20.795,-4.151 c25.301,4.035 39.973,3.459 39.973,3.459 s46.559,-19.716 48.061,-14.874 c1.502,4.728 6.469,3.459 -46.328,20.524 z" fill="#C0D5FF" id="svg_72" class=""/><path d="M177.0593282470703,188.31466650772094 c-1.502,-4.727 -48.061,14.874 -48.061,14.874 h-0.462 a78.247,78.247 0 0 1 2.657,5.4190000000000005 c52.335,-16.834 47.368,-15.565 45.866,-20.293 z" fill="#B1C5E8" id="svg_73" class=""/><path d="M68.11332824707029,186.81666650772095 s-0.924,-2.883 4.275,-4.728 c5.199,-1.729 58.574,-12.337 61.924,-11.76 c3.35,0.461 44.132,6.572 44.71,8.532 c0.5780000000000002,1.96 -49.678,14.758000000000001 -49.678,14.758000000000001 l-61.231,-6.802 z" fill="#fff" id="svg_74" class=""/><path d="M132.0023282470703,197.76866650772095 s-57.996,-2.4210000000000003 -62.27,-7.264 c-4.275,-4.958 -4.275,-8.301 20.91,-3.3440000000000003 c25.186,4.958 39.858,4.958 39.858,4.958 s47.252,-17.871 48.523,-13.144 c1.3860000000000001,4.727 6.354,3.6900000000000004 -47.021,18.794 z" fill="#C0D5FF" id="svg_75" class=""/><path d="M179.0233282470703,178.97566650772094 c-1.271,-4.8420000000000005 -48.523,13.144 -48.523,13.144 h-0.462 a57.573,57.573 0 0 1 2.426,5.535 c52.797,-14.989 47.83,-13.952 46.559,-18.679 z" fill="#B1C5E8" id="svg_76" class=""/><path d="M37.9613282470703,189.00666650772095 l28.536,-6.918 s6.123,41.508 7.74,43.814 c1.618,2.306 49.332,4.612 49.332,4.612 l13.863,0.807 s-58.574,24.558 -75.441,14.643 c-17.098,-10.147 -24.03,-56.958 -24.03,-56.958 z" fill="#FFB39F" id="svg_77" class=""/><path d="M40.73432824707032,193.96466650772095 c8.78,-2.652 17.329,-5.88 26.34,-7.84 a260.837,260.837 0 0 0 -0.5770000000000002,-4.036 l-28.536,6.918 l0.924,5.535 c0.6930000000000004,-0.231 1.271,-0.462 1.8490000000000002,-0.5770000000000002 z" fill="#E09B8D" id="svg_78" class=""/><path d="M132.11832824707034,235.12666650772096 s21.719,-5.7650000000000015 21.719,-10.147 c0,-4.381 -7.856,-20.177 -2.31,0.923 c0,0 -11.553,-28.594 -2.311,1.383 c0,0 -9.011,-23.29 -2.888,0.5770000000000002 c0,0 -9.243,-16.142 -2.542,1.153 l-8.318,3.113 l-19.987,-0.231 l-10.628,10.377 l27.265,-7.148 zM182.9513282470703,214.02666650772096 s-11.553,-28.594 -2.311,1.3840000000000001 c0,0 -9.011,-23.291 -2.888,0.5760000000000002 c0,0 -9.243,-16.142 -3.351,1.268 l-6.354,2.998 c2.311,0.231 5.315,0.11500000000000003 7.741,-0.6920000000000004 c7.394,-1.499 9.473,-4.035 9.473,-6.341 c0,-4.381 -7.856,-20.177 -2.31,0.807 z" fill="#FFB39F" id="svg_79" class=""/><path d="M212.4113282470703,517.491666507721 c0,4.151 -3.35,7.61 -7.509,7.725 c-4.16,0 -7.625,-3.343 -7.741,-7.494 l-0.3470000000000002,-24.443 c0,-4.151 3.351,-7.61 7.51,-7.725 c4.159,0 7.625,3.343 7.74,7.494 l0.3470000000000002,24.443 zM106.00832824707032,518.761666507721 c0,4.15 -3.35,7.609 -7.509,7.725 c-4.159,0 -7.625,-3.3440000000000003 -7.741,-7.495 l-0.3460000000000002,-24.443 c0,-4.151 3.35,-7.61 7.509,-7.725 c4.159,0 7.625,3.3440000000000003 7.741,7.494 l0.3460000000000002,24.444 z" fill="#091E1D" id="svg_80" class=""/><path d="M203.8623282470703,500.08166650772097 c0.11600000000000003,9.455 -7.509,17.18 -16.983,17.295 l-71.166,0.807 c-9.473,0.11600000000000003 -17.214,-7.494 -17.329,-16.949 l-7.625,-161.648 c-0.11600000000000003,-9.454 7.509,-17.179 16.982,-17.295 l82.604,-1.037 c9.474,-0.11600000000000003 17.214,7.494 17.33,16.948 l-3.813,161.879 z" fill="#322153" id="svg_81" class=""/><path d="M207.21232824707033,354.45966650772095 l0.3470000000000002,-16.026 c-0.11500000000000003,-9.454 -7.856,-17.064 -17.329,-16.949 l-82.604,1.038 c-9.474,0.11500000000000003 -17.099,7.84 -16.983,17.295 l0.809,16.026 l115.76,-1.3840000000000001 z" fill="#1C0C3B" id="svg_82" class=""/><path d="M221.3073282470703,334.398666507721 c0,2.6510000000000002 -2.079,4.727 -4.737,4.8420000000000005 l-134.938,1.614 c-2.6580000000000004,0 -4.737,-2.075 -4.853,-4.727 l-0.231,-17.064 c0,-2.652 2.08,-4.727 4.737,-4.843 l134.939,-1.614 c2.657,0 4.737,2.076 4.852,4.727 l0.231,17.065 z" fill="#322153" id="svg_83" class=""/><path d="M149.67932824707032,381.785666507721 l15.712,-9.454 l-3.813,9.8 l-11.899000000000001,-0.3460000000000002 z" fill="#fff" id="svg_84" class=""/><path d="M143.78732824707032,366.9126665077209 s1.27,0 3.234,2.997 c1.964,2.998 6.355,11.069 6.355,11.069 l7.971,-3.574 l1.8490000000000002,-3.113 s-3.466,-6.918 -6.239,-7.3790000000000004 h-13.17 z" fill="#fff" id="svg_85" class=""/><path d="M139.39732824707033,368.987666507721 s2.426,-2.652 4.39,-1.268 c1.964,1.3840000000000001 5.43,7.149 5.43,7.149 l-5.6610000000000005,9.915 l-10.167,-5.649 l6.008,-10.147 zM156.84232824707033,394.12266650772096 l0.808,18.217 l-6.816,-7.955 l6.008,-10.262 z" fill="#fff" id="svg_86" class=""/><path d="M172.78432824707033,395.96766650772093 s-0.5770000000000002,1.153 -4.159,1.499 c-3.581,0.3460000000000002 -12.823,0.3460000000000002 -12.823,0.3460000000000002 l-0.6940000000000004,8.762 l1.8490000000000002,3.114 s7.74,0.3450000000000002 9.473,-1.961 l6.354,-11.76 z" fill="#fff" id="svg_87" class=""/><path d="M172.90032824707032,391.124666507721 s1.271,3.3440000000000003 -0.924,4.497 c-2.08,1.038 -8.896,1.268 -8.896,1.268 l-6.123,-9.685 l9.82,-6.341 l6.123,10.261 zM143.0933282470703,393.89266650772095 l-16.175,-8.532 l10.283,-1.8450000000000002 l5.892,10.377 z" fill="#fff" id="svg_88" class=""/><path d="M133.3893282470703,406.69066650772095 s-0.6930000000000004,-1.038 0.809,-4.266 c1.502,-3.229 6.123,-11.184 6.123,-11.184 l-7.163,-4.958 l-3.581,0.11500000000000003 s-4.159,6.572 -3.12,9.109 l6.932,11.184 z" fill="#fff" id="svg_89" class=""/><path d="M137.5483282470703,409.22666650772095 s-3.581,-0.6920000000000004 -3.35,-2.998 c0.11500000000000003,-2.4210000000000003 3.35,-8.301 3.35,-8.301 l11.438,-0.3460000000000002 l0.462,11.645 h-11.9 z" fill="#fff" id="svg_90" class=""/></g></svg>