<svg xmlns="http://www.w3.org/2000/svg" width="48" height="44" fill="none"><path d="M14.642 1.85l-4.575 8.736c-.295.564-.1 1.27.438 1.586l7.163 4.22c.546.322 1.24.124 1.55-.442L27.974 0H17.64c-1.25 0-2.401.71-2.998 1.85z" fill="#29A361"/><path d="M27.974 0l-8.756 15.95a1.116 1.116 0 01-1.55.442l-1.87-1.1c.456.075.93-.142 1.172-.582L25.047 0h2.927z" fill="#248F55"/><path d="M37.555 8.46L34.4 1.948C33.82.755 32.64.001 31.35.001h-9.123l7.005 12.316-.07.032c-.44.205-.422.86.03 1.04l6.048 2.407a.538.538 0 00.702-.324l2.332-6.292c.172-.466-.28-.915-.72-.72z" fill="#34CB79"/><path d="M38.275 9.179l-2.332 6.293a.537.537 0 01-.702.324l-1.83-.729 2.181-5.888a.567.567 0 00-.358-.744 1.015 1.015 0 01-.628-.526l-2.89-5.96C31.139.755 29.96 0 28.67 0h2.682c1.29 0 2.469.755 3.048 1.949l3.156 6.51c.44-.194.892.255.72.72z" fill="#2FB86E"/><path d="M31.46 33.56c-.086-.362-.536-.517-.81-.233l-4.728 4.9a.513.513 0 000 .708l4.746 4.918c.273.282.718.131.808-.224h6.979c1.285 0 2.46-.748 3.042-1.936l3.982-8.134H31.46z" fill="#29A361"/><path d="M37.35 33.56l2.264 3.548c.511.802.568 1.827.148 2.685l-.93 1.9c-.581 1.188-1.758 1.936-3.042 1.936h2.665c1.284 0 2.46-.748 3.042-1.935l3.982-8.135H37.35z" fill="#248F55"/><path d="M21.935 42.694v-8.658c0-.651-.509-1.179-1.137-1.179H2.068l4.82 9.171c.598 1.137 1.747 1.844 2.996 1.844h10.914c.628 0 1.137-.527 1.137-1.178z" fill="#29A361"/><path d="M10.011 32.858l-4.16 7.2-3.783-7.2h7.944zM21.935 34.036v8.658c0 .651-.509 1.178-1.137 1.178h-2.983c.628 0 1.137-.527 1.137-1.178v-8.658c0-.65-.51-1.178-1.137-1.178h2.983c.628 0 1.137.527 1.137 1.178z" fill="#248F55"/><path d="M12.785 25.207l-.841-6.56a.575.575 0 00-.642-.51l-6.354.876c-.479.066-.657.669-.33 1.005l-4.01 5.99a3.644 3.644 0 00-.192 3.706l4.364 8.303 7.085-12.266.008.006c.404.318.979-.029.912-.55z" fill="#34CB79"/><path d="M11.873 25.757l-.007-.006L4.78 38.016l-1.458-2.772 5.768-9.985.16-.277a.393.393 0 01.425-.184h.003a.582.582 0 00.665-.662l-.738-5.765 1.697-.233c.313-.043.6.185.642.508l.841 6.561c.067.521-.508.868-.912.55z" fill="#2FB86E"/><path d="M47.396 25.557L41.91 17.32a1.113 1.113 0 00-1.504-.352l-7.149 4.276c-.567.339-.741 1.104-.38 1.67l10.078 15.801 4.676-9.55a3.644 3.644 0 00-.235-3.608z" fill="#34CB79"/><path d="M47.63 29.165l-4.676 9.55-1.568-2.46 3.47-7.09a3.643 3.643 0 00-.234-3.608l-5.291-7.945 1.075-.643a1.112 1.112 0 011.504.351l5.486 8.237c.71 1.067.8 2.452.234 3.608z" fill="#2FB86E"/></svg>